<?xml version="1.0" encoding="UTF-8"?> <svg xmlns="http://www.w3.org/2000/svg" xmlns:xlink="http://www.w3.org/1999/xlink" version="1.1" id="Layer_2_00000041296463790402426280000013934365643290855594_" x="0px" y="0px" viewBox="0 0 335.6 117.3" style="enable-background:new 0 0 335.6 117.3;" xml:space="preserve"> <style type="text/css"> .st0{fill:#FFFFFF;} .st1{fill:#0081FB;} .st2{fill:url(#Logo1_00000181781841786186850830000010387108196749191612_);} .st3{fill:url(#Logo2_00000172430679078266403910000008087451346960340641_);} </style> <g id="meta-p"> <g> <g id="layer1"> <g id="g2714"> <path id="path763" class="st0" d="M123.3,2.1H136l21.6,39l21.6-39h12.4v64.2h-10.4V17.1l-18.9,34h-9.7l-18.9-34v49.2h-10.4 L123.3,2.1L123.3,2.1z"></path> <path id="path765" class="st0" d="M225,67.4c-4.8,0-9-1.1-12.6-3.2c-3.6-2.1-6.5-5.1-8.5-8.8s-3.1-8.1-3.1-12.9 c0-4.9,1-9.3,3-13.1c2-3.8,4.7-6.8,8.3-8.9s7.6-3.2,12.2-3.2c4.6,0,8.5,1.1,11.8,3.2c3.3,2.1,5.8,5.2,7.6,9s2.7,8.4,2.7,13.7 v2.8H211c0.6,3.9,2.2,7,4.7,9.2s5.7,3.4,9.6,3.4c3.1,0,5.7-0.5,8-1.4c2.2-0.9,4.3-2.3,6.3-4.2l5.5,6.7 C239.6,65,232.9,67.5,225,67.4L225,67.4L225,67.4z M232.5,29.4c-2.2-2.2-5-3.3-8.5-3.3c-3.4,0-6.3,1.1-8.6,3.4 c-2.3,2.3-3.8,5.3-4.4,9.1h25.2C235.9,34.7,234.7,31.6,232.5,29.4L232.5,29.4z"></path> <path id="path767" class="st0" d="M258.8,27h-9.5v-8.5h9.5v-14h10v14h14.5V27h-14.5v21.5c0,3.6,0.6,6.1,1.8,7.7 c1.2,1.5,3.3,2.3,6.3,2.3c1.3,0,2.4,0,3.4-0.2s1.9-0.2,3-0.4v8.4c-1.3,0.4-2.5,0.6-3.8,0.8c-1.5,0.2-3,0.3-4.5,0.3 c-10.8,0-16.2-5.9-16.2-17.7L258.8,27L258.8,27z"></path> <path id="path769" class="st0" d="M335.3,66.3h-9.8v-6.7c-1.7,2.5-4,4.4-6.6,5.8s-5.7,2-9.2,2c-4.2,0-8-1.1-11.2-3.2 c-3.2-2.2-5.8-5.1-7.7-8.9c-1.9-3.8-2.8-8.1-2.8-13c0-4.9,1-9.2,2.8-13c1.9-3.8,4.5-6.7,7.9-8.9c3.4-2.1,7.2-3.2,11.5-3.2 c3.3,0,6.2,0.6,8.8,1.9c2.6,1.2,4.8,3.1,6.5,5.4v-6.1h9.8L335.3,66.3L335.3,66.3z M325.3,35.2c-1.1-2.7-2.8-4.9-5.1-6.4 c-2.3-1.6-5-2.4-8-2.4c-4.3,0-7.7,1.4-10.2,4.3s-3.8,6.8-3.8,11.6c0,4.9,1.2,8.8,3.7,11.7c2.4,2.9,5.8,4.3,10,4.3 c3.1,0,5.8-0.8,8.2-2.4s4.1-3.7,5.2-6.4L325.3,35.2L325.3,35.2z"></path> <path id="Logo0" class="st1" d="M11.3,44.5c0,3.9,0.9,6.9,2,8.7c1.5,2.4,3.6,3.4,5.9,3.4c2.9,0,5.5-0.7,10.5-7.7 c4-5.6,8.8-13.4,12-18.4l5.4-8.3c3.8-5.8,8.1-12.2,13.1-16.6C64.3,2,68.7,0,73.2,0c7.4,0,14.5,4.3,20,12.4 c5.9,8.9,8.8,20,8.8,31.5c0,6.8-1.3,11.9-3.7,15.9c-2.2,3.8-6.5,7.7-13.8,7.7v-11c6.2,0,7.8-5.7,7.8-12.3c0-9.3-2.2-19.7-7-27.1 c-3.4-5.2-7.8-8.5-12.7-8.5c-5.2,0-9.5,4-14.2,11c-2.5,3.8-5.1,8.3-8,13.5l-3.2,5.7c-6.4,11.4-8.1,14-11.3,18.3 c-5.6,7.5-10.5,10.3-16.8,10.3c-7.5,0-12.3-3.2-15.2-8.2c-2.4-4-3.6-9.2-3.6-15.2L11.3,44.5L11.3,44.5z"></path> <linearGradient id="Logo1_00000163790561236514417150000002212932547412900541_" gradientUnits="userSpaceOnUse" x1="-804.0474" y1="1348.0424" x2="-752.2374" y2="1350.6523" gradientTransform="matrix(1.35 0 0 1.35 1107.95 -1787.85)"> <stop offset="0" style="stop-color:#0064E1"></stop> <stop offset="0.4" style="stop-color:#0064E1"></stop> <stop offset="0.83" style="stop-color:#0073EE"></stop> <stop offset="1" style="stop-color:#0082FB"></stop> </linearGradient> <path id="Logo1" style="fill:url(#Logo1_00000163790561236514417150000002212932547412900541_);" d="M9,13.2 C14,5.4,21.3,0,29.6,0c4.8,0,9.6,1.4,14.6,5.5c5.5,4.5,11.3,11.8,18.6,24l2.6,4.3c6.3,10.5,9.9,15.9,12,18.5 c2.7,3.3,4.6,4.2,7.1,4.2c6.2,0,7.8-5.7,7.8-12.3l9.7-0.3c0,6.8-1.3,11.9-3.7,15.8c-2.2,3.8-6.5,7.7-13.8,7.7 c-4.5,0-8.5-1-13-5.2c-3.4-3.2-7.4-8.9-10.5-14L52,33.1c-4.6-7.6-8.8-13.3-11.2-15.9c-2.6-2.8-6-6.1-11.3-6.1 c-4.3,0-8,3-11.1,7.7L9,13.2L9,13.2z"></path> <linearGradient id="Logo2_00000076602237910649973090000013270704730156751759_" gradientUnits="userSpaceOnUse" x1="-809.6148" y1="1360.6555" x2="-809.6148" y2="1341.5455" gradientTransform="matrix(1.35 0 0 1.35 1107.95 -1787.85)"> <stop offset="0" style="stop-color:#0082FB"></stop> <stop offset="1" style="stop-color:#0064E0"></stop> </linearGradient> <path id="Logo2" style="fill:url(#Logo2_00000076602237910649973090000013270704730156751759_);" d="M29.4,11 c-4.3,0-8,3-11.1,7.7c-4.4,6.6-7,16.4-7,25.8c0,3.9,0.9,6.9,2,8.7l-9.4,6.2c-2.4-4-3.6-9.2-3.6-15.2c0-10.9,3-22.2,8.6-30.9 C14,5.4,21.3,0,29.6,0L29.4,11z"></path> </g> </g> <g> <g> <path class="st0" d="M0,116.8V85.7h11.7c2.4,0,4.3,0.3,5.7,0.9s2.6,1.6,3.4,2.9c0.8,1.3,1.2,2.7,1.2,4.1c0,1.3-0.4,2.6-1.1,3.8 s-1.8,2.1-3.3,2.8c1.9,0.6,3.3,1.5,4.3,2.8s1.5,2.9,1.5,4.7c0,1.4-0.3,2.8-0.9,4.1s-1.4,2.2-2.3,2.9s-2,1.2-3.4,1.5 s-3,0.5-5,0.5L0,116.8L0,116.8z M4.1,98.8h6.7c1.8,0,3.1-0.1,3.9-0.4c1-0.3,1.8-0.8,2.4-1.6c0.5-0.7,0.8-1.6,0.8-2.7 s-0.2-1.9-0.7-2.7c-0.5-0.8-1.2-1.3-2.1-1.6s-2.5-0.4-4.7-0.4H4.1L4.1,98.8L4.1,98.8L4.1,98.8z M4.1,113.2h7.7 c1.3,0,2.3-0.1,2.8-0.2c0.9-0.2,1.7-0.5,2.4-0.8c0.6-0.4,1.2-1,1.6-1.7s0.6-1.6,0.6-2.6c0-1.2-0.3-2.2-0.9-3 c-0.6-0.9-1.4-1.4-2.5-1.8c-1.1-0.3-2.6-0.5-4.6-0.5H4.1L4.1,113.2L4.1,113.2L4.1,113.2z"></path> </g> <g> <path class="st0" d="M45.5,116.8v-3.3c-1.8,2.6-4.1,3.8-7.2,3.8c-1.3,0-2.6-0.2-3.7-0.8c-1.2-0.5-2-1.2-2.6-1.9s-1-1.7-1.2-2.8 c-0.2-0.8-0.2-1.9-0.2-3.6v-14h3.8v12.5c0,2,0.1,3.3,0.2,4c0.2,1,0.8,1.8,1.5,2.4c0.8,0.6,1.7,0.9,2.9,0.9s2.2-0.3,3.2-0.9 c1-0.6,1.7-1.4,2.1-2.4c0.4-1,0.6-2.5,0.6-4.4V94.3h3.8v22.5L45.5,116.8L45.5,116.8L45.5,116.8z"></path> <path class="st0" d="M53.3,110.1l3.8-0.6c0.2,1.5,0.8,2.7,1.8,3.5c1,0.8,2.3,1.2,4.1,1.2c1.7,0,3.1-0.4,3.9-1.1 c0.8-0.7,1.3-1.6,1.3-2.5c0-0.9-0.4-1.5-1.1-2c-0.5-0.3-1.8-0.8-3.9-1.3c-2.8-0.7-4.8-1.3-5.8-1.8c-1.1-0.5-1.9-1.2-2.5-2.2 c-0.6-0.9-0.8-1.9-0.8-3c0-1,0.2-1.9,0.7-2.8s1.1-1.6,1.9-2.1c0.6-0.4,1.4-0.8,2.4-1.1c1-0.3,2.1-0.5,3.3-0.5 c1.8,0,3.3,0.2,4.7,0.8s2.3,1.2,3,2.1s1.1,2,1.3,3.5l-3.7,0.5c-0.2-1.2-0.7-2.1-1.5-2.7s-2-1-3.5-1c-1.8,0-3,0.3-3.8,0.9 c-0.8,0.6-1.1,1.3-1.1,2c0,0.5,0.2,0.9,0.5,1.3c0.3,0.4,0.8,0.8,1.5,1c0.4,0.1,1.5,0.5,3.4,1c2.7,0.7,4.6,1.3,5.7,1.8 c1.1,0.5,1.9,1.1,2.5,2s0.9,2,0.9,3.3s-0.4,2.5-1.1,3.6c-0.7,1.1-1.8,2-3.2,2.6s-3,0.9-4.8,0.9c-2.9,0-5.2-0.6-6.7-1.8 C54.7,114.3,53.7,112.5,53.3,110.1L53.3,110.1z"></path> <path class="st0" d="M76.6,90.1v-4.4h3.8v4.4H76.6z M76.6,116.8V94.3h3.8v22.5H76.6z"></path> <path class="st0" d="M86.2,116.8V94.3h3.4v3.2c1.7-2.5,4.1-3.7,7.2-3.7c1.4,0,2.6,0.2,3.8,0.7s2,1.1,2.6,1.9s1,1.7,1.2,2.8 c0.1,0.7,0.2,1.9,0.2,3.7v13.9h-3.8v-13.7c0-1.6-0.2-2.7-0.4-3.5c-0.3-0.8-0.8-1.4-1.6-1.8c-0.8-0.5-1.7-0.7-2.7-0.7 c-1.6,0-3,0.5-4.2,1.6s-1.8,3-1.8,5.9v12.3L86.2,116.8L86.2,116.8z"></path> <path class="st0" d="M125.8,109.6l4,0.5c-0.6,2.3-1.8,4.1-3.5,5.4s-3.8,1.9-6.5,1.9c-3.3,0-5.9-1-7.8-3.1 c-1.9-2-2.9-4.9-2.9-8.5s1-6.7,2.9-8.8c1.9-2.1,4.5-3.2,7.6-3.2s5.5,1,7.4,3.1s2.9,4.9,2.9,8.7c0,0.2,0,0.6,0,1h-16.8 c0.1,2.5,0.8,4.4,2.1,5.7s2.8,2,4.7,2c1.4,0,2.6-0.4,3.6-1.1C124.5,112.4,125.3,111.2,125.8,109.6L125.8,109.6z M113.3,103.4 h12.6c-0.2-1.9-0.7-3.3-1.4-4.3c-1.2-1.5-2.8-2.2-4.7-2.2c-1.8,0-3.2,0.6-4.4,1.8C114.1,99.9,113.4,101.4,113.3,103.4 L113.3,103.4z"></path> <path class="st0" d="M133.1,110.1l3.8-0.6c0.2,1.5,0.8,2.7,1.8,3.5c1,0.8,2.3,1.2,4.1,1.2s3.1-0.4,3.9-1.1 c0.9-0.7,1.3-1.6,1.3-2.5c0-0.9-0.4-1.5-1.1-2c-0.5-0.3-1.8-0.8-3.9-1.3c-2.8-0.7-4.8-1.3-5.8-1.8c-1.1-0.5-1.9-1.2-2.5-2.2 c-0.6-0.9-0.8-1.9-0.8-3c0-1,0.2-1.9,0.7-2.8s1.1-1.6,1.9-2.1c0.6-0.4,1.4-0.8,2.4-1.1c1-0.3,2.1-0.5,3.3-0.5 c1.8,0,3.3,0.2,4.7,0.8s2.3,1.2,3,2.1s1.1,2,1.3,3.5l-3.7,0.5c-0.2-1.2-0.7-2.1-1.5-2.7s-2-1-3.4-1c-1.8,0-3,0.3-3.8,0.9 c-0.8,0.6-1.1,1.3-1.1,2c0,0.5,0.2,0.9,0.5,1.3c0.3,0.4,0.8,0.8,1.5,1c0.4,0.1,1.5,0.5,3.4,1c2.7,0.7,4.6,1.3,5.7,1.8 s1.9,1.1,2.5,2s0.9,2,0.9,3.3s-0.4,2.5-1.1,3.6c-0.7,1.1-1.8,2-3.2,2.6s-3,0.9-4.8,0.9c-2.9,0-5.2-0.6-6.7-1.8 C134.5,114.3,133.5,112.5,133.1,110.1L133.1,110.1z"></path> <path class="st0" d="M154.8,110.1l3.8-0.6c0.2,1.5,0.8,2.7,1.8,3.5c1,0.8,2.3,1.2,4.1,1.2s3.1-0.4,3.9-1.1 c0.9-0.7,1.3-1.6,1.3-2.5c0-0.9-0.4-1.5-1.1-2c-0.5-0.3-1.8-0.8-3.9-1.3c-2.8-0.7-4.8-1.3-5.8-1.8c-1.1-0.5-1.9-1.2-2.5-2.2 c-0.6-0.9-0.8-1.9-0.8-3c0-1,0.2-1.9,0.7-2.8s1.1-1.6,1.9-2.1c0.6-0.4,1.4-0.8,2.4-1.1c1-0.3,2.1-0.5,3.3-0.5 c1.8,0,3.3,0.2,4.7,0.8s2.3,1.2,3,2.1s1.1,2,1.3,3.5l-3.7,0.5c-0.2-1.2-0.7-2.1-1.5-2.7s-2-1-3.4-1c-1.8,0-3,0.3-3.8,0.9 c-0.8,0.6-1.1,1.3-1.1,2c0,0.5,0.2,0.9,0.5,1.3c0.3,0.4,0.8,0.8,1.5,1c0.4,0.1,1.5,0.5,3.4,1c2.7,0.7,4.6,1.3,5.7,1.8 s1.9,1.1,2.5,2s0.9,2,0.9,3.3s-0.4,2.5-1.1,3.6c-0.7,1.1-1.8,2-3.2,2.6s-3,0.9-4.8,0.9c-2.9,0-5.2-0.6-6.7-1.8 C156.2,114.3,155.2,112.5,154.8,110.1L154.8,110.1z"></path> </g> <g> <path class="st0" d="M193.1,116.8V85.7h11.7c2.1,0,3.6,0.1,4.7,0.3c1.5,0.2,2.8,0.7,3.9,1.4c1,0.7,1.9,1.7,2.5,3 s0.9,2.7,0.9,4.2c0,2.7-0.8,4.9-2.5,6.7c-1.7,1.8-4.7,2.8-9.1,2.8h-8v12.7H193.1L193.1,116.8z M197.2,100.5h8 c2.7,0,4.6-0.5,5.7-1.5c1.1-1,1.7-2.4,1.7-4.2c0-1.3-0.3-2.4-1-3.3s-1.5-1.5-2.6-1.8c-0.7-0.2-2-0.3-3.9-0.3h-8L197.2,100.5 L197.2,100.5L197.2,100.5z"></path> </g> <g> <path class="st0" d="M236.8,114.1c-1.4,1.2-2.8,2.1-4.1,2.6c-1.3,0.5-2.7,0.7-4.2,0.7c-2.5,0-4.4-0.6-5.7-1.8s-2-2.8-2-4.6 c0-1.1,0.2-2.1,0.8-3c0.5-0.9,1.2-1.7,2-2.2s1.7-1,2.8-1.2c0.8-0.2,1.9-0.4,3.4-0.6c3.1-0.4,5.4-0.8,6.8-1.3c0-0.5,0-0.9,0-1 c0-1.6-0.4-2.7-1.1-3.3c-1-0.9-2.4-1.3-4.4-1.3c-1.8,0-3.1,0.3-4,0.9c-0.9,0.6-1.5,1.7-1.9,3.3l-3.7-0.5 c0.3-1.6,0.9-2.9,1.7-3.9c0.8-1,1.9-1.7,3.4-2.3s3.2-0.8,5.1-0.8s3.5,0.2,4.7,0.7s2.1,1,2.6,1.7s1,1.6,1.2,2.6 c0.1,0.7,0.2,1.8,0.2,3.5v5.1c0,3.6,0.1,5.8,0.2,6.7s0.5,1.8,1,2.7h-4C237.1,116,236.9,115.1,236.8,114.1L236.8,114.1z M236.5,105.5c-1.4,0.6-3.5,1.1-6.2,1.4c-1.6,0.2-2.7,0.5-3.3,0.8s-1.2,0.7-1.5,1.2c-0.4,0.5-0.5,1.2-0.5,1.8 c0,1,0.4,1.9,1.2,2.6c0.8,0.7,1.9,1,3.4,1s2.8-0.3,3.9-1s2-1.5,2.5-2.7c0.4-0.9,0.6-2.1,0.6-3.8L236.5,105.5L236.5,105.5 L236.5,105.5z"></path> </g> <g> <path class="st0" d="M245.9,116.8V94.3h3.4v3.4c0.9-1.6,1.7-2.7,2.4-3.2c0.7-0.5,1.6-0.8,2.4-0.8c1.3,0,2.6,0.4,3.9,1.2 l-1.3,3.6c-0.9-0.6-1.9-0.8-2.8-0.8c-0.8,0-1.6,0.2-2.2,0.8c-0.7,0.5-1.1,1.2-1.4,2.1c-0.4,1.4-0.6,2.8-0.6,4.5v11.8 L245.9,116.8L245.9,116.8z"></path> </g> <g> <path class="st0" d="M271.3,113.4l0.5,3.4c-1.1,0.2-2,0.3-2.9,0.3c-1.4,0-2.5-0.2-3.2-0.7s-1.3-1-1.6-1.7 c-0.3-0.7-0.5-2.2-0.5-4.5v-13h-2.8v-3h2.8v-5.6l3.8-2.3v7.9h3.9v3h-3.9v13.2c0,1.1,0.1,1.8,0.2,2.1c0.1,0.3,0.4,0.6,0.7,0.7 s0.7,0.3,1.3,0.3C270.1,113.5,270.7,113.5,271.3,113.4L271.3,113.4z"></path> <path class="st0" d="M275.1,116.8V94.3h3.4v3.2c1.7-2.5,4-3.7,7.2-3.7c1.4,0,2.6,0.2,3.8,0.7s2,1.1,2.6,1.9s1,1.7,1.2,2.8 c0.1,0.7,0.2,1.9,0.2,3.7v13.9h-3.8v-13.7c0-1.6-0.1-2.7-0.5-3.5c-0.3-0.8-0.8-1.4-1.6-1.8c-0.8-0.5-1.6-0.7-2.7-0.7 c-1.6,0-3,0.5-4.2,1.6s-1.8,3-1.8,5.9v12.3L275.1,116.8L275.1,116.8z"></path> <path class="st0" d="M314.7,109.6l4,0.5c-0.6,2.3-1.8,4.1-3.5,5.4s-3.8,1.9-6.5,1.9c-3.3,0-5.9-1-7.8-3.1s-2.9-4.9-2.9-8.5 s1-6.7,2.9-8.8c2-2.1,4.5-3.2,7.6-3.2s5.5,1,7.4,3.1s2.9,4.9,2.9,8.7c0,0.2,0,0.6,0,1h-16.8c0.1,2.5,0.8,4.4,2.1,5.7 s2.8,2,4.7,2c1.4,0,2.6-0.4,3.6-1.1C313.3,112.4,314.1,111.2,314.7,109.6L314.7,109.6z M302.1,103.4h12.6 c-0.2-1.9-0.6-3.3-1.5-4.3c-1.2-1.5-2.8-2.2-4.7-2.2c-1.8,0-3.2,0.6-4.4,1.8C302.9,99.9,302.2,101.4,302.1,103.4L302.1,103.4z"></path> <path class="st0" d="M323.4,116.8V94.3h3.4v3.4c0.9-1.6,1.7-2.7,2.4-3.2s1.6-0.8,2.5-0.8c1.3,0,2.6,0.4,3.9,1.2l-1.3,3.6 c-0.9-0.6-1.9-0.8-2.8-0.8c-0.8,0-1.6,0.2-2.2,0.8c-0.7,0.5-1.1,1.2-1.4,2.1c-0.4,1.4-0.6,2.8-0.6,4.5v11.8L323.4,116.8 L323.4,116.8z"></path> </g> </g> </g> </g> </svg> 