<?xml version="1.0" encoding="UTF-8"?> <svg xmlns="http://www.w3.org/2000/svg" xmlns:xlink="http://www.w3.org/1999/xlink" version="1.1" id="Layer_2_00000087401667441401191750000003210656314769687973_" x="0px" y="0px" viewBox="0 0 323.6 88.8" style="enable-background:new 0 0 323.6 88.8;" xml:space="preserve"> <style type="text/css"> .st0{fill:#FFFFFF;} .st1{fill:#F8981D;} </style> <g id="aws-p"> <g> <path class="st0" d="M111.6,43.6c1.3,0.8,3.2,1.4,5.7,2c2.5,0.6,5,0.9,7.6,0.9s4.9-0.3,7-1s4-1.6,5.5-2.8s2.7-2.7,3.6-4.4 c0.9-1.7,1.3-3.6,1.3-5.8c0-2.6-0.8-4.9-2.3-6.9s-4.1-3.6-7.6-4.8l-7-2.2c-2.7-0.9-4.5-1.8-5.4-2.7s-1.5-2.1-1.5-3.5 c0-2,0.8-3.5,2.3-4.4c1.6-0.9,3.8-1.4,6.6-1.4c3.5,0,6.7,0.6,9.5,1.9c0.9,0.4,1.5,0.6,1.9,0.6c0.8,0,1.1-0.5,1.1-1.6V5.3 c0-0.7-0.1-1.2-0.4-1.6c-0.3-0.4-0.8-0.8-1.5-1.2c-0.5-0.3-1.2-0.6-2.1-0.9s-1.8-0.6-2.8-0.8c-1-0.2-2.1-0.4-3.2-0.6 c-1.1-0.2-2.2-0.2-3.3-0.2c-2.2,0-4.3,0.3-6.2,0.9c-2,0.6-3.7,1.4-5.1,2.5c-1.5,1.1-2.7,2.5-3.5,4.1c-0.9,1.6-1.3,3.4-1.3,5.5 c0,2.6,0.8,5,2.5,7.2c1.6,2.2,4.3,3.9,7.9,5l7.2,2.2c2.4,0.8,4.1,1.7,5,2.6c0.9,0.9,1.3,2.1,1.3,3.5c0,2-0.9,3.6-2.6,4.7 c-1.7,1.1-4.1,1.6-7.2,1.6c-2,0-3.9-0.2-5.9-0.6c-2-0.4-3.8-1-5.4-1.7c-0.5-0.2-0.9-0.4-1.2-0.5c-0.3-0.1-0.6-0.2-0.9-0.2 c-0.8,0-1.1,0.5-1.1,1.5v2.5c0,0.5,0.1,0.9,0.3,1.4C110.3,42.7,110.8,43.1,111.6,43.6"></path> <path class="st0" d="M28.1,19.6c-1.8-0.3-3.6-0.4-5.2-0.4c-5.1,0-9.1,1.3-12.1,3.9c-3,2.6-4.5,6-4.5,10.2c0,4,1.2,7.2,3.6,9.5 c2.4,2.4,5.7,3.5,9.9,3.5c5.8,0,10.7-2.3,14.5-6.8c0.5,1.1,1,2.1,1.5,2.9c0.5,0.8,1.1,1.6,1.8,2.3c0.5,0.5,1,0.7,1.5,0.7 c0.4,0,0.8-0.2,1.3-0.4l3.1-2.1c0.6-0.5,1-1,1-1.5c0-0.3-0.1-0.7-0.3-1.1c-0.7-1.3-1.2-2.5-1.6-3.5c-0.4-1.1-0.6-2.6-0.6-4.4V16.2 c0-5.4-1.4-9.5-4.1-12.1C35,1.3,30.7,0,24.8,0c-2.7,0-5.3,0.3-7.7,0.9c-2.4,0.6-4.5,1.4-6.2,2.2c-0.7,0.3-1.2,0.7-1.4,1 C9.3,4.6,9.2,5.2,9.2,6v2.4c0,1,0.4,1.6,1,1.6c0.2,0,0.4,0,0.8-0.1c0.4-0.1,0.9-0.3,1.7-0.6c1.7-0.7,3.5-1.3,5.3-1.7 s3.6-0.7,5.3-0.7c3.8,0,6.5,0.8,8,2.3c1.6,1.5,2.3,4.2,2.3,7.9v3.6C31.8,20.2,29.9,19.8,28.1,19.6 M33.7,28.3 c0,1.7-0.2,3.1-0.5,4.3c-0.3,1.2-0.9,2.2-1.7,3.2c-1.3,1.5-2.9,2.5-4.7,3.2c-1.8,0.6-3.5,0.9-5.1,0.9c-2.2,0-4-0.6-5.2-1.8 c-1.2-1.2-1.8-2.9-1.8-5.2c0-2.5,0.8-4.4,2.4-5.7c1.6-1.3,4.1-2,7.3-2c1.5,0,3,0.1,4.6,0.3c1.6,0.2,3.1,0.5,4.5,0.8L33.7,28.3 L33.7,28.3z"></path> <path class="st0" d="M58.5,42.7c0.3,1,0.6,1.6,1,1.9c0.4,0.3,1,0.5,1.9,0.5h4.2c0.9,0,1.6-0.2,2-0.5c0.4-0.3,0.7-1,0.9-2l7.6-31.8 L84,42.6c0.2,1,0.6,1.6,0.9,2c0.4,0.3,1.1,0.5,2,0.5h4.2c0.9,0,1.5-0.2,1.9-0.5c0.4-0.3,0.8-1,1-1.9L106,4.5 c0.2-0.5,0.3-0.9,0.3-1.2c0.1-0.3,0.1-0.5,0.1-0.8c0-0.8-0.4-1.2-1.2-1.2h-4.6c-0.9,0-1.6,0.2-1.9,0.5c-0.4,0.3-0.7,1-1,1.9 l-8.6,33.1L81.4,3.7c-0.2-1-0.6-1.6-0.9-1.9c-0.4-0.3-1.1-0.5-2-0.5h-4c-0.9,0-1.6,0.2-2,0.5c-0.4,0.3-0.7,1-0.9,1.9l-7.7,32.7 L55.5,3.7c-0.3-1-0.6-1.6-1-1.9c-0.4-0.3-1-0.5-2-0.5h-4.8c-0.8,0-1.2,0.4-1.2,1.2c0,0.3,0.1,1,0.4,2L58.5,42.7L58.5,42.7z"></path> <path class="st1" d="M131.9,66.6c-18.2,7.7-38.1,11.5-56.1,11.5c-26.7,0-52.6-7.3-73.5-19.5c-1.8-1.1-3.2,0.8-1.7,2.2 c19.4,17.5,45,28,73.5,28c20.3,0,43.9-6.4,60.2-18.4C137,68.4,134.7,65.5,131.9,66.6"></path> <path class="st1" d="M121.7,59.9c-1.4,1-1.2,2.4,0.4,2.2c5.2-0.6,16.9-2,19,0.6c2.1,2.7-2.3,13.6-4.3,18.5c-0.6,1.5,0.7,2.1,2,1 c8.7-7.3,11-22.6,9.2-24.8C146.2,55.2,131,53.4,121.7,59.9"></path> <path class="st0" d="M187.1,34.9c-0.4,0-0.6-0.2-0.6-0.6V7.6c0-0.4,0.2-0.6,0.6-0.6h0.8c0.4,0,0.6,0.2,0.7,0.6l0.2,1.6 c1.2-1,2.4-1.7,3.5-2.1c1.1-0.4,2.3-0.7,3.5-0.7c2.5,0,4.5,0.9,6,2.7c1.5,1.8,2.2,4.3,2.2,7.5s-0.8,5.8-2.3,7.7s-3.6,2.9-6.2,2.9 c-2.4,0-4.6-0.9-6.6-2.7v9.7c0,0.4-0.2,0.6-0.6,0.6L187.1,34.9L187.1,34.9z M195.1,25.2c2.1,0,3.8-0.7,4.9-2.1 c1.1-1.4,1.6-3.5,1.6-6.3c0-5.6-2.1-8.3-6.3-8.3c-2.2,0-4.4,0.8-6.5,2.5v11.5c1.1,0.9,2.1,1.6,3.1,2C192.9,25,194,25.2,195.1,25.2 "></path> <path class="st0" d="M213.6,27.2c-1.8,0-3.2-0.5-4.3-1.5c-1.1-1-1.6-2.4-1.6-4.1c0-1.9,0.7-3.4,2-4.5c1.3-1.1,3.1-1.6,5.4-1.6 c1.8,0,3.6,0.3,5.6,0.9V13c0-1.6-0.4-2.7-1.1-3.4c-0.8-0.7-2-1-3.8-1s-3.7,0.3-5.7,1c-0.2,0.1-0.4,0.1-0.6,0.1 c-0.3,0-0.4-0.2-0.4-0.5V8.5c0-0.2,0-0.4,0.1-0.5s0.2-0.2,0.4-0.3c2.1-0.8,4.2-1.2,6.6-1.2s4,0.5,5.1,1.4c1.1,1,1.7,2.4,1.7,4.4 v13.9c0,0.4-0.2,0.6-0.6,0.6h-0.8c-0.4,0-0.6-0.2-0.6-0.6l-0.1-1.7C218.4,26.3,216.1,27.2,213.6,27.2 M213.9,25.2 c1,0,2.1-0.2,3.2-0.6c1.1-0.4,2.3-1,3.5-1.7V18c-1.8-0.5-3.5-0.7-5.1-0.7c-3.7,0-5.5,1.4-5.5,4.2c0,1.2,0.3,2.1,1,2.8 C211.7,24.9,212.7,25.2,213.9,25.2"></path> <path class="st0" d="M229.6,26.8c-0.4,0-0.6-0.2-0.6-0.6V7.6c0-0.4,0.2-0.6,0.6-0.6h0.8c0.4,0,0.6,0.2,0.7,0.6l0.2,2.3 c1-1.1,2-1.9,2.9-2.3c1-0.5,2-0.7,3.2-0.7c0.4,0,0.8,0,1,0c0.4,0,0.6,0.2,0.6,0.6v1c0,0.1,0,0.2-0.1,0.3c-0.1,0.1-0.2,0.1-0.3,0.1 c-0.2,0-0.4,0-0.6,0c-0.2,0-0.5,0-0.8,0c-1.2,0-2.3,0.2-3.2,0.7s-1.8,1.2-2.7,2.2v14.5c0,0.4-0.2,0.6-0.6,0.6L229.6,26.8 L229.6,26.8z"></path> <path class="st0" d="M249.4,27c-1.6,0-2.7-0.4-3.5-1.2c-0.8-0.8-1.2-2-1.2-3.6V9h-3.1c-0.4,0-0.6-0.2-0.6-0.6V8 c0-0.2,0-0.4,0.1-0.5c0.1-0.1,0.2-0.2,0.5-0.2l3.2-0.3l0.3-5.2c0-0.2,0.1-0.4,0.2-0.5s0.2-0.1,0.4-0.1h0.7c0.4,0,0.6,0.2,0.6,0.6 v5.2h5.7c0.4,0,0.6,0.2,0.6,0.6v0.8c0,0.4-0.2,0.6-0.6,0.6h-5.7v13.1c0,1.1,0.2,1.8,0.7,2.3c0.5,0.5,1.2,0.7,2.3,0.7 c0.8,0,1.4-0.1,2-0.2c0.3,0,0.5-0.1,0.7-0.1c0.2,0,0.3-0.1,0.4-0.1c0.3,0,0.4,0.2,0.4,0.5v0.6c0,0.5-0.1,0.7-0.4,0.8 C251.9,26.9,250.7,27.1,249.4,27"></path> <path class="st0" d="M258.1,26.8c-0.4,0-0.6-0.2-0.6-0.6V7.6c0-0.4,0.2-0.6,0.6-0.6h0.8c0.4,0,0.6,0.2,0.7,0.6l0.2,1.7 c1.3-0.9,2.6-1.6,4-2.1c1.4-0.5,2.8-0.8,4.1-0.8c1.9,0,3.4,0.5,4.4,1.5s1.5,2.5,1.5,4.5v13.8c0,0.4-0.2,0.6-0.6,0.6h-1.1 c-0.4,0-0.6-0.2-0.6-0.6V13.4c0-1.7-0.3-2.9-1-3.7c-0.7-0.8-1.7-1.2-3.1-1.2c-2.6,0-5.2,0.8-7.7,2.5v15.2c0,0.4-0.2,0.6-0.6,0.6 L258.1,26.8L258.1,26.8z"></path> <path class="st0" d="M288.2,27.4c-3.1,0-5.5-0.9-7-2.6s-2.4-4.4-2.4-7.9c0-3.3,0.8-5.9,2.4-7.7c1.6-1.8,3.8-2.7,6.7-2.7 c2.4,0,4.2,0.7,5.5,2c1.3,1.4,1.9,3.3,1.9,5.9c0,1.1-0.1,1.8-0.2,2.4c-0.1,0.4-0.3,0.6-0.7,0.6H281c0,2.8,0.6,4.8,1.8,6.1 c1.2,1.3,3,2,5.5,2c1.9,0,3.7-0.3,5.4-1c0.3-0.1,0.6-0.2,0.7-0.2c0.1,0,0.2,0,0.3,0.1c0.1,0.1,0.1,0.2,0.1,0.3v0.6 c0,0.4-0.1,0.7-0.4,0.8C292.5,26.9,290.4,27.4,288.2,27.4 M293,15.5c0-0.4,0-0.8,0-1.3c0-1.9-0.5-3.3-1.4-4.3 c-0.9-1-2.3-1.4-4-1.4c-4.1,0-6.3,2.3-6.6,7H293L293,15.5z"></path> <path class="st0" d="M300.7,26.8c-0.4,0-0.6-0.2-0.6-0.6V7.6c0-0.4,0.2-0.6,0.6-0.6h0.8c0.4,0,0.6,0.2,0.7,0.6l0.2,2.3 c1-1.1,2-1.9,2.9-2.3c1-0.5,2-0.7,3.2-0.7c0.4,0,0.8,0,1,0c0.4,0,0.6,0.2,0.6,0.6v1c0,0.1,0,0.2-0.1,0.3c-0.1,0.1-0.2,0.1-0.3,0.1 c-0.2,0-0.4,0-0.6,0c-0.2,0-0.5,0-0.8,0c-1.2,0-2.3,0.2-3.2,0.7s-1.8,1.2-2.7,2.2v14.5c0,0.4-0.2,0.6-0.6,0.6L300.7,26.8 L300.7,26.8z"></path> <path class="st0" d="M187.1,70.4c-0.4,0-0.6-0.2-0.6-0.6V51.3c0-0.4,0.2-0.6,0.6-0.6h0.8c0.4,0,0.6,0.2,0.7,0.6l0.2,1.7 c1.3-0.9,2.6-1.6,4-2.1c1.4-0.5,2.8-0.8,4.1-0.8c1.9,0,3.4,0.5,4.4,1.5c1,1,1.5,2.5,1.5,4.5v13.8c0,0.4-0.2,0.6-0.6,0.6h-1.1 c-0.4,0-0.6-0.2-0.6-0.6V57c0-1.7-0.3-2.9-1-3.7c-0.6-0.8-1.7-1.2-3.1-1.2c-2.6,0-5.2,0.8-7.7,2.5v15.2c0,0.4-0.2,0.6-0.6,0.6 L187.1,70.4L187.1,70.4z"></path> <path class="st0" d="M217.2,71c-3.1,0-5.5-0.9-7-2.7c-1.6-1.8-2.4-4.4-2.4-7.9c0-3.3,0.8-5.9,2.4-7.7c1.6-1.8,3.8-2.7,6.7-2.7 c2.4,0,4.2,0.7,5.5,2c1.3,1.4,1.9,3.3,1.9,5.9c0,1-0.1,1.8-0.2,2.4c-0.1,0.4-0.3,0.6-0.7,0.6H210c0,2.8,0.6,4.8,1.8,6.1 c1.2,1.3,3,2,5.5,2c1.9,0,3.7-0.3,5.4-1c0.3-0.1,0.6-0.2,0.7-0.2c0.1,0,0.2,0,0.3,0.1c0.1,0.1,0.1,0.2,0.1,0.3v0.6 c0,0.4-0.1,0.7-0.4,0.8C221.4,70.6,219.4,71,217.2,71 M222,59.1c0-0.4,0-0.8,0-1.3c0-1.9-0.5-3.3-1.4-4.3c-0.9-1-2.3-1.5-4.1-1.5 c-4.1,0-6.3,2.3-6.6,7H222L222,59.1z"></path> <path class="st0" d="M235.2,70.7c-1.6,0-2.7-0.4-3.5-1.2c-0.8-0.8-1.2-2-1.2-3.6V52.7h-3.1c-0.4,0-0.6-0.2-0.6-0.6v-0.4 c0-0.2,0-0.4,0.1-0.5c0.1-0.1,0.2-0.2,0.5-0.2l3.2-0.3l0.3-5.2c0-0.2,0.1-0.4,0.2-0.5s0.2-0.1,0.4-0.1h0.7c0.4,0,0.6,0.2,0.6,0.6 v5.2h5.7c0.4,0,0.6,0.2,0.6,0.6v0.8c0,0.4-0.2,0.6-0.6,0.6h-5.7v13.1c0,1.1,0.2,1.8,0.7,2.3c0.5,0.4,1.2,0.7,2.3,0.7 c0.8,0,1.4-0.1,2-0.2c0.3-0.1,0.5-0.1,0.7-0.1c0.2,0,0.3-0.1,0.4-0.1c0.3,0,0.4,0.2,0.4,0.5v0.6c0,0.4-0.1,0.7-0.4,0.8 C237.8,70.5,236.6,70.7,235.2,70.7"></path> <path class="st0" d="M248.1,70.4c-0.4,0-0.6-0.2-0.8-0.6l-6.2-18.3c-0.1-0.3-0.2-0.5-0.2-0.6c0-0.2,0.2-0.3,0.5-0.3h1.3 c0.3,0,0.6,0.2,0.7,0.5l5.4,16.7l4.8-16.6c0.1-0.4,0.4-0.5,0.7-0.5h1.4c0.4,0,0.6,0.2,0.7,0.5l4.7,16.7l5.5-16.8 c0.1-0.3,0.3-0.5,0.7-0.5h1.2c0.3,0,0.5,0.1,0.5,0.3c0,0.1,0,0.3-0.2,0.6l-6.4,18.3c-0.1,0.4-0.4,0.6-0.8,0.6h-1.3 c-0.4,0-0.6-0.2-0.8-0.6l-4.8-16.7l-4.7,16.7c-0.1,0.4-0.4,0.6-0.7,0.6H248.1L248.1,70.4z"></path> <path class="st0" d="M280.7,71c-2.9,0-5.1-0.9-6.7-2.8s-2.4-4.4-2.4-7.7s0.8-5.9,2.4-7.7c1.6-1.8,3.8-2.8,6.7-2.8s5.1,0.9,6.7,2.8 s2.4,4.4,2.4,7.7s-0.8,5.9-2.4,7.7S283.5,71,280.7,71 M280.7,69c4.5,0,6.8-2.8,6.8-8.5s-2.3-8.4-6.8-8.4s-6.8,2.8-6.8,8.4 S276.1,69,280.7,69"></path> <path class="st0" d="M295.5,70.4c-0.4,0-0.6-0.2-0.6-0.6V51.3c0-0.4,0.2-0.6,0.6-0.6h0.8c0.4,0,0.6,0.2,0.7,0.6l0.2,2.3 c1-1.1,2-1.9,2.9-2.3s2-0.7,3.2-0.7c0.4,0,0.8,0,1,0c0.4,0,0.6,0.2,0.6,0.6v1c0,0.1,0,0.2-0.1,0.3c-0.1,0.1-0.2,0.1-0.3,0.1 c-0.2,0-0.4,0-0.6,0c-0.2,0-0.5,0-0.8,0c-1.2,0-2.3,0.2-3.2,0.7s-1.8,1.2-2.7,2.2v14.5c0,0.4-0.2,0.6-0.6,0.6H295.5L295.5,70.4z"></path> <path class="st0" d="M309,70.4c-0.4,0-0.6-0.2-0.6-0.6V42c0-0.4,0.2-0.6,0.6-0.6h1.1c0.4,0,0.6,0.2,0.6,0.6v17.5l9.4-8.4 c0.3-0.3,0.6-0.4,1-0.4h1.4c0.3,0,0.5,0.1,0.5,0.3c0,0.1-0.1,0.3-0.4,0.6L313,60l10.3,9.5c0.2,0.2,0.4,0.4,0.4,0.5 c0,0.3-0.1,0.4-0.5,0.4h-1.7c-0.3,0-0.6-0.1-0.9-0.3l-10-9.3v9.1c0,0.4-0.2,0.6-0.6,0.6H309L309,70.4z"></path> </g> </g> </svg> 