<svg xmlns="http://www.w3.org/2000/svg" xmlns:xlink="http://www.w3.org/1999/xlink" viewBox="0 0 321.29 51.32"><defs><style>.cls-1{fill:none;}.cls-2{fill:#fff;}.cls-3{clip-path:url(#clip-path);}.cls-4{fill:#ff7be5;}</style><clipPath id="clip-path"><rect id="SVGID" class="cls-1" width="51.32" height="51.32"></rect></clipPath></defs><title>Asset 2</title><g id="Layer_2" data-name="Layer 2"><g id="Layer_2-2" data-name="Layer 2"><path class="cls-2" d="M202.29,23.27l-5.1,1.22-3.55.81h0a12.26,12.26,0,0,1,.3-2.9A5,5,0,0,1,196,19.2a4.76,4.76,0,0,1,4-.23,3.93,3.93,0,0,1,2.21,3.16c.07.37.12.75.16,1.13l0,0Zm9.26,2C211.55,16,205.72,12,198.26,12c-8.43,0-13.7,5.84-13.7,13.31,0,8.12,4.49,13.41,14.17,13.41a23.19,23.19,0,0,0,11.71-2.69L209.1,30a19.46,19.46,0,0,1-8.52,1.95c-3.66,0-5.74-1.39-6.53-4h17.27a13,13,0,0,0,.23-2.64Z"></path><path class="cls-2" d="M124.8,23.27l-5.1,1.22-3.55.81h0a12.26,12.26,0,0,1,.3-2.9,5,5,0,0,1,2.06-3.2,4.76,4.76,0,0,1,4-.23,3.93,3.93,0,0,1,2.21,3.16c.07.37.12.75.16,1.13l0,0Zm9.26,2C134.06,16,128.23,12,120.77,12c-8.43,0-13.7,5.84-13.7,13.31,0,8.12,4.49,13.41,14.17,13.41A23.19,23.19,0,0,0,133,36.06L131.61,30a19.46,19.46,0,0,1-8.52,1.95c-3.66,0-5.74-1.39-6.53-4h17.27A13,13,0,0,0,134.06,25.3Z"></path><path class="cls-2" d="M103.44,5.21H94.89V37.82h8.55Z"></path><path class="cls-2" d="M213.35,12.86h9l1.89,5.76c1.18-2.85,3.84-6.5,8.57-6.5,6.48,0,10,3.29,10,11.78V37.82h-9v-8.7c0-1.33,0-2.66,0-4a6.67,6.67,0,0,0-.55-3.59,4.53,4.53,0,0,0-1.95-1.67,5.31,5.31,0,0,0-4.86.07c-.38.2-2.23,1.2-2.23,1.67v16.2h-9V19.58l-1.89-6.73Z"></path><path class="cls-2" d="M249.58,19.4h-4.12V12.86h4.12V8.77l9-2.12v6.21h9V19.4h-9v7.33C258.56,29.61,260,31,262,31a14.34,14.34,0,0,0,5.14-.88l1.07,6.77a22,22,0,0,1-8.61,1.58c-6.53,0-10-3.11-10-9.14V19.4Z"></path><path class="cls-2" d="M284.4,31.32c3.29,0,5.23-2.37,5.23-6.17s-1.85-6-5.09-6-5.18,2.18-5.18,6.12c0,3.72,1.85,6,5,6Zm.09-19.43c8.43,0,14.58,5.29,14.58,13.5s-6.16,13.22-14.68,13.22-14.49-5.1-14.49-13.22S275.87,11.89,284.49,11.89Z"></path><path class="cls-2" d="M176.51,12.78a9.8,9.8,0,0,0-5.11-.65,8.56,8.56,0,0,0-2.52.77C166.7,14,165,16.43,164.1,18.62a8.39,8.39,0,0,0-4.89-5.84,9.8,9.8,0,0,0-5.11-.65,8.56,8.56,0,0,0-2.52.77c-2.17,1.07-3.86,3.52-4.78,5.7v-.16L145,12.85h-9l1.89,6.73V37.8h8.92V21.51c0-.12.43-.35.5-.4a7.46,7.46,0,0,1,3.58-1.6,4,4,0,0,1,3.45,1.64c.08.12.16.23.24.36a6.59,6.59,0,0,1,.55,3.59c0,1.33,0,2.66,0,4v8.7h9V21.52c0-.12.43-.35.5-.4a7.57,7.57,0,0,1,3.58-1.61,4,4,0,0,1,3.45,1.64l.24.36a6.59,6.59,0,0,1,.55,3.59c0,1.33,0,2.66,0,4v8.7h9V23.87c0-4.08-.58-9.34-4.89-11.11Z"></path><path class="cls-2" d="M320.32,12.12c-4.72,0-7.38,3.66-8.57,6.5l-1.89-5.76h-9l1.89,6.73V37.81h9V21c1.28-.22,8.23,1.06,9.54,1.54V12.15c-.32,0-.64,0-1,0Z"></path><path class="cls-2" d="M82,23.27l-5.1,1.22-3.55.81h0a12.26,12.26,0,0,1,.3-2.9,5,5,0,0,1,2.06-3.2,4.76,4.76,0,0,1,4-.23,3.93,3.93,0,0,1,2.21,3.16c.07.37.12.75.16,1.13l0,0Zm9.26,2C91.27,16,85.44,12,78,12c-8.43,0-13.7,5.84-13.7,13.31,0,8.12,4.49,13.41,14.17,13.41a23.19,23.19,0,0,0,11.71-2.69L88.82,30a19.46,19.46,0,0,1-8.52,1.95c-3.66,0-5.74-1.39-6.53-4H91A13,13,0,0,0,91.27,25.3Z"></path><g class="cls-3"><path class="cls-4" d="M25.66,0A25.66,25.66,0,1,0,51.32,25.66,25.66,25.66,0,0,0,25.66,0ZM19.25,36.35H15V15h4.28Zm17.1,0H23.52V32.07H36.35Zm0-8.56H23.52V23.52H36.35Zm0-8.55H23.52V15H36.35Z"></path></g></g></g></svg>