<?xml version="1.0" encoding="UTF-8"?> <svg xmlns="http://www.w3.org/2000/svg" xmlns:xlink="http://www.w3.org/1999/xlink" version="1.1" id="Layer_2_00000016037318199019843600000013698499831651393694_" x="0px" y="0px" viewBox="0 0 358.7 98" style="enable-background:new 0 0 358.7 98;" xml:space="preserve"> <style type="text/css"> .st0{fill:#FFFFFF;} .st1{fill:#E94335;} .st2{fill:#4284F3;} .st3{fill:#34A753;} .st4{fill:#FABB05;} </style> <g id="gc-p"> <g id="Layer_1-2"> <path class="st0" d="M147,48.4h16.1c2.8,0,5.5,0.6,7.9,1.8c7,3.5,9.8,12,6.3,19c-1.4,2.7-3.6,4.9-6.3,6.3 c-2.5,1.2-5.2,1.8-7.9,1.8h-7.5V94H147L147,48.4L147,48.4z M163.3,69.1c1.9,0.1,3.7-0.6,5.1-1.8c1.2-1.2,1.8-2.8,1.8-4.5 c0-1.7-0.6-3.3-1.8-4.4c-1.4-1.3-3.2-1.9-5.1-1.8h-7.7v12.5H163.3z"></path> <path class="st0" d="M186.1,93.7c-1.7-0.9-3.2-2.2-4.2-3.8c-1-1.7-1.6-3.6-1.5-5.6c0-2,0.6-4,1.7-5.6c1.2-1.7,2.8-3,4.6-3.8 c2.1-0.9,4.3-1.3,6.6-1.3c2.9-0.1,5.7,0.4,8.4,1.5v-1.1c0-1.6-0.7-3.2-2-4.2c-1.4-1.1-3.2-1.7-5-1.6c-3-0.1-5.8,1.3-7.5,3.7 l-5.9-4.2c1.6-2,3.6-3.6,5.9-4.7c2.4-1.1,5.1-1.6,7.7-1.6c4.9,0,8.6,1.2,11.2,3.4c2.6,2.3,3.9,5.7,3.9,10.1V94h-8.2v-3.3h-0.5 c-2.2,2.8-5.5,4.4-9.1,4.4C190,95.1,188,94.6,186.1,93.7L186.1,93.7z M198,87.5c1.1-0.7,2.1-1.6,2.7-2.7c0.6-1.1,1-2.3,1-3.6 c-2.1-1-4.3-1.5-6.6-1.5c-1.6-0.1-3.3,0.3-4.7,1.3c-1,0.8-1.6,2-1.6,3.3c0,1.2,0.5,2.4,1.5,3.1c1.1,0.8,2.4,1.2,3.7,1.2 C195.4,88.5,196.8,88.2,198,87.5C198,87.5,198,87.5,198,87.5z"></path> <path class="st0" d="M215.5,62.9h7.9v4.3h0.5c0.9-1.6,2.2-2.9,3.8-3.8c1.7-1,3.6-1.4,5.5-1.4c1,0,2,0.1,3,0.3v8.2 c-1.2-0.5-2.5-0.7-3.8-0.7c-2.3-0.1-4.6,0.8-6.2,2.5c-1.6,1.9-2.4,4.3-2.3,6.7v15.5h-8.4C215.4,94.6,215.5,62.9,215.5,62.9z M252.1,94.3c-1.2-0.4-2.3-1.2-3.2-2.1c-2-1.9-3-4.7-3-8.3V69.5h-5.6v-7.1h5.5V53h8.4v9.4h7.8v7.1h-7.8v12.9 c-0.1,1.3,0.3,2.6,1.1,3.7c0.8,0.8,1.8,1.2,2.9,1.1c0.7,0,1.3-0.1,1.9-0.3c0.7-0.2,1.3-0.6,2-0.9v8c-1.8,0.7-3.8,1-5.8,1 C254.9,95,253.4,94.8,252.1,94.3z"></path> <path class="st0" d="M267.7,62.4h7.9v4.1h0.5c1-1.6,2.4-2.9,4-3.7c1.8-0.9,3.8-1.4,5.8-1.4c3.9,0,6.8,1.2,8.8,3.6 c2,2.4,3,5.6,3,9.7V94h-8.4V75.7c0.1-1.8-0.4-3.6-1.6-4.9c-1.1-1.2-2.7-1.8-4.4-1.7c-2.1-0.1-4.1,0.9-5.3,2.6 c-1.4,1.9-2,4.3-2,6.6V94h-8.4L267.7,62.4z"></path> <path class="st0" d="M309.3,92.8c-2.5-1.4-4.6-3.5-6-6c-1.5-2.6-2.2-5.6-2.2-8.6c0-2.9,0.7-5.8,2.1-8.4c1.4-2.5,3.4-4.7,5.9-6.2 c2.5-1.5,5.4-2.3,8.4-2.3c3-0.1,5.9,0.7,8.5,2.1c2.3,1.4,4.2,3.4,5.4,5.8c1.3,2.6,1.9,5.5,1.9,8.4c0,0.6,0,1.1-0.1,1.5 s-0.1,0.8-0.1,0.8h-23.8c0.2,2.2,1.3,4.2,3,5.6c1.6,1.3,3.6,2,5.6,1.9c3.3,0.1,6.4-1.7,7.9-4.6l6.9,3.4c-2.9,5.5-8.7,8.8-15,8.6 C314.9,95.1,311.9,94.3,309.3,92.8L309.3,92.8z M325.3,74.2c-0.1-1-0.5-1.9-1-2.7c-0.7-1-1.6-1.8-2.6-2.3c-1.2-0.7-2.6-1-4.1-0.9 c-1.8,0-3.5,0.6-4.9,1.6c-1.4,1.1-2.5,2.6-2.9,4.4H325.3z"></path> <path class="st0" d="M337.2,62.4h7.9v4.3h0.5c0.8-1.6,2.1-2.9,3.7-3.8c1.6-1,3.5-1.5,5.4-1.5c1.4,0,2.7,0.2,4,0.8v8.3 c-1.7-0.7-3.5-1.1-5.3-1.1c-2.2-0.1-4.2,0.9-5.6,2.6c-1.5,1.9-2.2,4.2-2.1,6.6V94h-8.4L337.2,62.4L337.2,62.4z"></path> <path class="st0" d="M156.6,27.9c-2.8,0-5.6-1.1-7.6-3.1c-4.1-4-4.2-10.5-0.3-14.6c0.1-0.1,0.2-0.2,0.3-0.3c2-2,4.7-3.1,7.6-3.1 c2.7,0,5.3,1,7.2,2.9l-2,2c-3-2.8-7.7-2.7-10.6,0.2c-2.9,3-2.9,7.8,0,10.8c2.9,2.9,7.7,3,10.7,0.1c0.9-1,1.5-2.3,1.6-3.6h-6.9 v-2.8h9.7c0.1,0.6,0.2,1.2,0.1,1.8c0.1,2.5-0.8,4.9-2.5,6.7C162.1,26.9,159.4,28,156.6,27.9z M179.2,25.9c-2.7,2.6-7,2.6-9.7,0 c-2.6-2.7-2.6-7,0-9.7c2.7-2.6,7-2.6,9.7,0C181.9,18.9,181.9,23.3,179.2,25.9z M171.7,24.1c0.7,0.8,1.7,1.2,2.7,1.2 c1,0,2-0.4,2.7-1.2c1.5-1.7,1.5-4.2,0-5.9c-1.4-1.5-3.8-1.5-5.3-0.1c0,0-0.1,0.1-0.1,0.1C170.1,19.9,170.1,22.4,171.7,24.1 L171.7,24.1z M194.1,26c-2.7,2.6-7,2.6-9.7,0c-2.6-2.7-2.6-7,0-9.7c2.7-2.6,7-2.6,9.7,0C196.8,19,196.8,23.3,194.1,26z M186.6,24.1c1.4,1.5,3.8,1.6,5.2,0.2c0.1,0,0.1-0.1,0.2-0.2c1.5-1.7,1.5-4.2,0-5.9c-1.4-1.5-3.8-1.5-5.3-0.1c0,0-0.1,0.1-0.1,0.1 C185,19.9,185,22.4,186.6,24.1L186.6,24.1z M203.9,34c-1.4,0-2.7-0.4-3.8-1.2c-1-0.7-1.7-1.7-2.2-2.8l2.6-1.1 c0.3,0.6,0.7,1.2,1.3,1.7c0.6,0.5,1.4,0.7,2.1,0.7c1,0.1,2-0.3,2.7-1c0.7-0.8,1.1-1.9,1-3v-1h-0.1c-0.9,1-2.2,1.6-3.6,1.5 c-1.7,0-3.4-0.7-4.6-2c-1.3-1.2-2-3-2-4.8c0-1.8,0.7-3.5,2-4.8c1.2-1.3,2.8-2,4.6-2c0.7,0,1.4,0.1,2.1,0.4 c0.6,0.2,1.1,0.6,1.5,1.1h0.1v-1.1h2.8v12.2c0.1,2-0.5,3.9-1.8,5.3C207.3,33.4,205.7,34,203.9,34L203.9,34L203.9,34z M204.1,25.2 c1,0,1.9-0.4,2.6-1.2c0.7-0.8,1.1-1.9,1.1-3c0.1-1.1-0.3-2.2-1-3c-0.6-0.8-1.6-1.2-2.6-1.2c-1,0-2,0.4-2.7,1.2 c-0.8,0.8-1.1,1.9-1.1,3c0,1.1,0.4,2.1,1.1,2.9C202.2,24.8,203.1,25.2,204.1,25.2C204.1,25.2,204.1,25.2,204.1,25.2z M215.4,7.5 v20h-3v-20C212.4,7.6,215.4,7.6,215.4,7.5z M223.6,27.9c-1.8,0-3.6-0.7-4.8-2c-2.6-2.7-2.6-7-0.1-9.7c1.2-1.2,2.8-1.9,4.6-1.9 c0.8,0,1.6,0.1,2.3,0.4c0.6,0.3,1.2,0.6,1.8,1.1c0.8,0.8,1.4,1.7,1.8,2.7l0.3,0.8l-9.1,3.8c0.6,1.3,1.9,2.1,3.3,2.1 c1.4,0,2.6-0.7,3.4-1.9l2.3,1.5c-0.6,0.8-1.3,1.5-2.2,2.1C226.1,27.6,224.9,27.9,223.6,27.9L223.6,27.9z M219.9,20.9l6.1-2.5 c-0.2-0.4-0.6-0.8-1-1c-0.5-0.3-1-0.4-1.6-0.4c-0.9,0-1.8,0.4-2.5,1.1C220.2,18.8,219.8,19.8,219.9,20.9L219.9,20.9L219.9,20.9z"></path> <path class="st0" d="M245.1,27.9c-5.3,0.2-9.8-4-9.9-9.3c-0.2-5.3,4-9.8,9.3-9.9c0.2,0,0.4,0,0.6,0c2.6-0.1,5.1,1,6.8,3l-1.6,1.6 c-1.2-1.6-3.1-2.4-5.1-2.3c-1.9-0.1-3.7,0.7-5.1,2c-2.8,3-2.8,7.6,0,10.6c1.4,1.3,3.2,2,5.1,2c2.2,0,4.2-0.9,5.6-2.6l1.6,1.6 c-0.9,1-1.9,1.8-3.2,2.4C248,27.6,246.5,27.9,245.1,27.9L245.1,27.9z"></path> <path class="st0" d="M257,27.5h-2.4V9.1h2.4V27.5z"></path> <path class="st0" d="M260.8,16.4c2.6-2.6,6.8-2.6,9.3,0c2.4,2.7,2.4,6.9,0,9.6c-2.6,2.6-6.8,2.6-9.3,0 C258.3,23.2,258.3,19.1,260.8,16.4z M262.5,24.5c1.5,1.6,4,1.7,5.6,0.1c0,0,0.1-0.1,0.1-0.1c1.6-1.9,1.6-4.7,0-6.6 c-1.5-1.6-4-1.7-5.6-0.1c0,0-0.1,0.1-0.1,0.1C260.9,19.8,260.9,22.6,262.5,24.5z"></path> <path class="st0" d="M285.1,27.5h-2.3v-1.8h-0.1c-0.4,0.6-1,1.2-1.6,1.5c-0.7,0.4-1.5,0.6-2.3,0.6c-1.4,0.1-2.7-0.4-3.6-1.4 c-0.9-1.1-1.3-2.5-1.2-3.9v-7.7h2.4v7.3c0,2.4,1,3.5,3.1,3.5c0.9,0,1.8-0.4,2.4-1.2c0.6-0.8,0.9-1.7,0.9-2.7v-6.9h2.4L285.1,27.5 L285.1,27.5z"></path> <path class="st0" d="M293.1,27.9c-1.6,0-3.2-0.7-4.2-1.9c-2.4-2.8-2.4-6.8,0-9.6c1.1-1.2,2.6-1.9,4.2-1.9c0.9,0,1.8,0.2,2.6,0.6 c0.7,0.4,1.3,0.9,1.7,1.5h0.1l-0.1-1.8V9.1h2.4v18.4h-2.3v-1.8h-0.1c-0.4,0.7-1,1.2-1.7,1.5C295,27.7,294.1,27.9,293.1,27.9z M293.5,25.7c1.1,0,2.1-0.4,2.9-1.2c1.6-1.9,1.6-4.7,0-6.6c-1.5-1.6-3.9-1.7-5.5-0.2c-0.1,0.1-0.1,0.1-0.2,0.2 c-1.6,1.9-1.6,4.7,0,6.6C291.4,25.3,292.5,25.7,293.5,25.7z"></path> <path class="st1" d="M77.8,27.1l3.9,0.1l10.6-10.6l0.5-4.5c-19.7-17.5-50-15.8-67.5,4c-4.9,5.5-8.4,12-10.4,19.1 c1.2-0.8,3.7-0.2,3.7-0.2l21.2-3.5c0,0,1.1-1.8,1.6-1.7C51,19.5,66.9,18.3,77.8,27.1z"></path> <path class="st2" d="M107.3,35.2c-2.5-9-7.5-17-14.4-23.1l-15.1,15c6.2,5,9.9,12.6,9.9,20.6v2.7c7.3,0,13.2,5.9,13.2,13.2 S95,76.8,87.7,76.8H61.1l-2.7,2.7v15.9l2.7,2.6h26.5c19,0.1,34.5-15.3,34.5-34.3C122.2,52.4,116.6,41.7,107.3,35.2 C107.2,35.2,107.3,35.2,107.3,35.2z"></path> <path class="st3" d="M34.5,98h26.5V76.8H34.5c-1.9,0-3.8-0.4-5.5-1.2l-3.8,1.2L14.6,87.4l-1,3.6C19.7,95.5,27,98,34.5,98z"></path> <path class="st4" d="M34.5,29.1C15.6,29,0.1,44.3,0,63.3c-0.1,10.9,5,21.1,13.7,27.6l15.4-15.4c-6.7-3-9.6-10.9-6.6-17.5 s10.9-9.6,17.5-6.6c2.9,1.3,5.3,3.7,6.6,6.6L62,42.7C55.5,34.1,45.3,29.1,34.5,29.1z"></path> </g> </g> </svg> 