<svg xmlns="http://www.w3.org/2000/svg" id="Layer_1" data-name="Layer 1" viewBox="0 0 710.79 116.09"><defs><style>.cls-1{fill:#fff;}.cls-2{fill:#e2066f;}.cls-3{fill:#a0dbe8;}.cls-4{fill:#525353;}.cls-5{fill:#aa9678;}.cls-6{fill:#c0b098;}.cls-7{fill:#786453;}.cls-8{fill:#8b7460;}.cls-9{fill:none;}.cls-10{fill:#bbbcbd;}.cls-11{fill:#676a6a;}.cls-12{fill:#909393;}.cls-13{fill:#e2dddb;}.cls-14{fill:#fbb040;}.cls-15{fill:#9f2255;}</style></defs><title>prestashop-logo</title><g id="Calque_2" data-name="Calque 2"><path class="cls-1" d="M259.22,70.32a12.56,12.56,0,0,1-.11-2q0-8.76,5.82-13.67A19.47,19.47,0,0,1,277.8,49.7q9.29,0,12.92,7ZM304.28,62a21.23,21.23,0,0,0-7.79-16.82q-7.69-6.47-19.33-6.46a31.3,31.3,0,0,0-14,3.25,28,28,0,0,0-11.11,10.15,28.58,28.58,0,0,0-4.49,16q0,13.14,8.66,21.15a29.41,29.41,0,0,0,20.71,8q13.79,0,23.93-10.47L293.82,79a19.58,19.58,0,0,1-15.75,7.47q-9.57,0-15.12-6.83L304.39,62.2Z" transform="translate(-0.99 -1.01)"></path><path class="cls-1" d="M233.86,42.23A24.67,24.67,0,0,0,226,51V39.56H214V96.37h12V72q0-9.7,4.48-15.48t13.35-5.77h.64l-.1-12.07a19,19,0,0,0-10.52,3.53" transform="translate(-0.99 -1.01)"></path><path class="cls-1" d="M347.15,67.43a33.53,33.53,0,0,0-5.39-3q-2.5-1.06-5.18-1.92t-6.14-1.71A27,27,0,0,1,325.05,59a4.26,4.26,0,0,1-2.78-4.06,5,5,0,0,1,2.67-4.65,13.75,13.75,0,0,1,6.94-1.54,26.78,26.78,0,0,1,15.06,4.59l4.49-8.87a33.29,33.29,0,0,0-18.59-5.77q-9.82,0-16,4.76a15.19,15.19,0,0,0-6.14,12.65q0,11.22,17.72,16c.29.07.71.22,1.29.43q11.31,3.42,11.32,7.69A5.83,5.83,0,0,1,338.72,85a10,10,0,0,1-6.41,1.87q-9.3,0-19.22-7.48l-5.77,9.29A38.72,38.72,0,0,0,319.12,95,40.48,40.48,0,0,0,332,97.23q9.18,0,15.06-4.86a16,16,0,0,0,5.87-13q0-8.11-5.77-12" transform="translate(-0.99 -1.01)"></path><path class="cls-1" d="M188.89,59.05q-3.79,4-14.26,4H160V33.15h12.81q10.26,0,15.06,3.21t4.81,10.94q0,7.76-3.79,11.75m8.91-30.81Q190,21.73,173,21.72H147.4V96.38H160V74.48h13.24q16.45,0,24.4-6.3t8-19.86q0-13.56-7.8-20.08" transform="translate(-0.99 -1.01)"></path><path class="cls-1" d="M380.91,86.87a7.59,7.59,0,0,1-6-2.4A9.36,9.36,0,0,1,372.79,78V49.17h14.95V39.56H372.79V21.72h-12v56q0,9,5.39,14.26a17.92,17.92,0,0,0,13,5.29,20.41,20.41,0,0,0,13.94-5.66l-4.92-8.44c-2.34,2.5-4.8,3.74-7.36,3.74" transform="translate(-0.99 -1.01)"></path><path class="cls-1" d="M435.65,81.48a15.85,15.85,0,0,1-12,5.17,17,17,0,0,1-12.28-5.12q-5.24-5.13-5.23-13.3a19.11,19.11,0,0,1,5.12-13.61,16.29,16.29,0,0,1,12.29-5.45,15.62,15.62,0,0,1,12.06,5.45,19.47,19.47,0,0,1,4.92,13.56q0,8.11-4.92,13.3m4.7-32.1q-7.26-10.66-18.47-10.68a27.11,27.11,0,0,0-19.44,7.91q-8.24,7.91-8.23,21.14t8,21.36A25.59,25.59,0,0,0,421,97.23a23.72,23.72,0,0,0,10.63-2.62,22.7,22.7,0,0,0,8.7-7.53v9.29h12V39.56h-12v9.82Z" transform="translate(-0.99 -1.01)"></path><path class="cls-2" d="M629.61,81.37a18.57,18.57,0,0,1-25.73,0Q598.8,76.19,598.8,68t5.08-13.41a18.57,18.57,0,0,1,25.73,0q5.07,5.19,5.07,13.41t-5.07,13.4M616.74,38.7q-12.81,0-21.35,8.49A28.18,28.18,0,0,0,586.84,68a28.14,28.14,0,0,0,8.55,20.77q8.54,8.49,21.35,8.49t21.36-8.49A28.14,28.14,0,0,0,646.65,68a28.18,28.18,0,0,0-8.55-20.78q-8.54-8.49-21.36-8.49" transform="translate(-0.99 -1.01)"></path><path class="cls-2" d="M694.58,81.42a17,17,0,0,1-12.28,5.13,15.86,15.86,0,0,1-12-5.18q-4.92-5.18-4.91-13.3a19.29,19.29,0,0,1,4.91-13.51,15.7,15.7,0,0,1,12.07-5.39,16.37,16.37,0,0,1,12.28,5.39,18.91,18.91,0,0,1,5.12,13.57q0,8.16-5.23,13.29m9.08-34.81a27,27,0,0,0-19.55-7.91q-11.42,0-18.47,10.79V39.56h-12v77.53h12V87.83q8.55,9.4,19.28,9.4T703.71,89q8.07-8.22,8.07-21.36t-8.12-21" transform="translate(-0.99 -1.01)"></path><path class="cls-2" d="M559,38.7a22,22,0,0,0-11.16,3,19,19,0,0,0-7.74,8.23V17.24h-12V96.38h12V65.62q0-7.91,4.59-12a15.66,15.66,0,0,1,10.79-4.11q13,0,13,15.7V96.38h12V61.56q0-11.12-5.93-17T559,38.7" transform="translate(-0.99 -1.01)"></path><path class="cls-2" d="M513.83,60.49q-5.82-5-17.3-7.8t-15-5.18A7.87,7.87,0,0,1,478,40.57a7.5,7.5,0,0,1,3.52-6.78,16.6,16.6,0,0,1,9-2.24,34.66,34.66,0,0,1,11.16,1.92,25.38,25.38,0,0,1,9,4.92l6.72-9.51a36.87,36.87,0,0,0-12.17-6.62A44.59,44.59,0,0,0,491,19.91q-11.11,0-18.64,5.6t-7.53,16q0,10.37,6.62,15.38a28.27,28.27,0,0,0,7.58,4.32,103.63,103.63,0,0,0,12.5,3.64q8.22,2,11.59,4.37a7.82,7.82,0,0,1,3.36,6.73,8.16,8.16,0,0,1-3.58,6.94q-3.57,2.63-9.66,2.62-12.18,0-23.5-9.83l-7.9,9.51A45.38,45.38,0,0,0,493,97.23q12,0,19.33-6.09a19.6,19.6,0,0,0,7.37-15.86q0-9.77-5.82-14.79" transform="translate(-0.99 -1.01)"></path><path class="cls-3" d="M38.61,90.07c.93-.41,1.87-.79,2.81-1.15s2.15-.78,3.25-1.11C46,87.4,47.4,87,48.79,86.74a52,52,0,0,1,5.68-.88q-1.61,5.06-3.54,10c.06.65.09,1.3.11,2a40.8,40.8,0,0,1,16,0c0-.65,0-1.3.1-2-1.28-3.33-2.47-6.68-3.54-10a51.58,51.58,0,0,1,5.68.88c1.39.29,2.77.66,4.13,1.07,1.09.33,2.17.71,3.24,1.11s1.89.74,2.81,1.15A50.37,50.37,0,0,1,96.93,103a58,58,0,1,0-75.81,0A50.47,50.47,0,0,1,38.61,90.07Z" transform="translate(-0.99 -1.01)"></path><path class="cls-4" d="M42.44,100.57A40.82,40.82,0,0,1,51,97.86c0-.65,0-1.3-.11-2q1.93-5,3.54-10a52,52,0,0,0-5.68.88c-1.39.29-2.76.66-4.12,1.07-1.1.33-2.18.71-3.25,1.11l4.24,1Z" transform="translate(-0.99 -1.01)"></path><path class="cls-4" d="M32.46,106.83a32.25,32.25,0,0,0,.17-3.27,1.2,1.2,0,0,1,1.2-1.2h1.06l3.72-12.29A50.37,50.37,0,0,0,21.12,103a58.13,58.13,0,0,0,8.75,6.24C30.7,108.39,31.57,107.59,32.46,106.83Z" transform="translate(-0.99 -1.01)"></path><path class="cls-4" d="M79.44,90.07l3.73,12.28h1a1.21,1.21,0,0,1,1.2,1.21c0,1.1.07,2.19.17,3.27.9.76,1.76,1.56,2.59,2.4A58.19,58.19,0,0,0,96.93,103,50.37,50.37,0,0,0,79.44,90.07Z" transform="translate(-0.99 -1.01)"></path><path class="cls-4" d="M72.4,90l4.23-1c-1.07-.4-2.15-.78-3.24-1.11C72,87.4,70.65,87,69.26,86.74a51.58,51.58,0,0,0-5.68-.88c1.07,3.37,2.26,6.72,3.54,10-.06.65-.09,1.3-.1,2a41,41,0,0,1,8.6,2.71Z" transform="translate(-0.99 -1.01)"></path><path d="M59,102.36h8.18a32.4,32.4,0,0,1-.19-4.5,40.8,40.8,0,0,0-16,0,35.82,35.82,0,0,1-.19,4.5Z" transform="translate(-0.99 -1.01)"></path><path d="M29.87,109.23c.68.39,1.36.78,2.05,1.14a34.31,34.31,0,0,0,.54-3.54C31.57,107.59,30.7,108.39,29.87,109.23Z" transform="translate(-0.99 -1.01)"></path><path d="M41.9,102.36h9a32.4,32.4,0,0,0,.19-4.5,40.82,40.82,0,0,0-8.6,2.71Z" transform="translate(-0.99 -1.01)"></path><path d="M85.59,106.83a31.81,31.81,0,0,0,.55,3.54c.69-.36,1.37-.75,2-1.14C87.35,108.39,86.49,107.59,85.59,106.83Z" transform="translate(-0.99 -1.01)"></path><path d="M76.16,102.36l-.54-1.78A40.63,40.63,0,0,0,67,97.86a32.4,32.4,0,0,0,.19,4.5Z" transform="translate(-0.99 -1.01)"></path><path class="cls-5" d="M41.9,102.36l.54-1.79L45.66,90l-4.23-1c-1,.36-1.89.74-2.82,1.15l-3.72,12.28h7Z" transform="translate(-0.99 -1.01)"></path><path class="cls-5" d="M75.62,100.57l.54,1.78h7L79.44,90.07c-.92-.41-1.86-.79-2.81-1.15L72.4,90Z" transform="translate(-0.99 -1.01)"></path><path class="cls-6" d="M35,104.84l.11-.08H35A.19.19,0,0,0,35,104.84Z" transform="translate(-0.99 -1.01)"></path><path class="cls-6" d="M59,104.76H35.12l-.11.08a35,35,0,0,1-.88,6.65,57.82,57.82,0,0,0,24.9,5.6Z" transform="translate(-0.99 -1.01)"></path><path class="cls-5" d="M83,104.76h-.11l.11.08Z" transform="translate(-0.99 -1.01)"></path><path class="cls-5" d="M82.93,104.76H59v12.33a57.75,57.75,0,0,0,24.89-5.6,35.83,35.83,0,0,1-.88-6.65Z" transform="translate(-0.99 -1.01)"></path><rect class="cls-7" x="58.04" y="102.55" height="1.2"></rect><path class="cls-8" d="M85.59,106.83c-.1-1.08-.17-2.17-.17-3.27a1.2,1.2,0,0,0-1.2-1.2H33.83a1.2,1.2,0,0,0-1.2,1.2,32.25,32.25,0,0,1-.17,3.27,31.79,31.79,0,0,1-.54,3.54c.73.39,1.47.77,2.21,1.12a34.9,34.9,0,0,0,.88-6.65s0-.06,0-.08H83v.08a35,35,0,0,0,.88,6.65c.75-.35,1.48-.73,2.21-1.12A34.31,34.31,0,0,1,85.59,106.83Z" transform="translate(-0.99 -1.01)"></path><path class="cls-9" d="M78.56,50.23h0a47.51,47.51,0,0,1,2,6.38c0,.15,0,.3-.05.46s-.07.45-.11.63q.09-.43.18-1a45.53,45.53,0,0,0-2-6.46h0Z" transform="translate(-0.99 -1.01)"></path><path class="cls-9" d="M95.46,63.35l-.09,0Z" transform="translate(-0.99 -1.01)"></path><path class="cls-9" d="M95.84,63.07l-.13.12Z" transform="translate(-0.99 -1.01)"></path><path class="cls-9" d="M76.82,48.7a36.71,36.71,0,0,0-4.21-3.06h0A36.71,36.71,0,0,1,76.82,48.7Z" transform="translate(-0.99 -1.01)"></path><path class="cls-9" d="M90.28,62.61l0,0Z" transform="translate(-0.99 -1.01)"></path><path class="cls-9" d="M92.74,65.68l.11.15Z" transform="translate(-0.99 -1.01)"></path><path class="cls-9" d="M80.36,57.79a4,4,0,0,1-.12.45A4.64,4.64,0,0,0,80.36,57.79Z" transform="translate(-0.99 -1.01)"></path><path class="cls-9" d="M74.67,79a15.39,15.39,0,0,0-1.79,4.2A15.39,15.39,0,0,1,74.67,79l.86-1.44L74.68,79Z" transform="translate(-0.99 -1.01)"></path><path class="cls-9" d="M78.57,50.22l.15-.31h0c0,.1-.1.2-.14.3.35.3.69.61,1,.92C79.26,50.83,78.92,50.52,78.57,50.22Z" transform="translate(-0.99 -1.01)"></path><path class="cls-9" d="M67.05,57.84h0Z" transform="translate(-0.99 -1.01)"></path><path class="cls-9" d="M66.61,56.86Z" transform="translate(-0.99 -1.01)"></path><path class="cls-9" d="M70.54,44.46l-.18-.09Z" transform="translate(-0.99 -1.01)"></path><path class="cls-9" d="M70.84,44.63l-.25-.14Z" transform="translate(-0.99 -1.01)"></path><path class="cls-9" d="M72.74,49.3v0Z" transform="translate(-0.99 -1.01)"></path><path class="cls-9" d="M66.85,57.34h0Z" transform="translate(-0.99 -1.01)"></path><path class="cls-9" d="M95.1,68.74l.22.29Z" transform="translate(-0.99 -1.01)"></path><path class="cls-9" d="M72.73,51.13q0,.91-.06,1.83Q72.72,52,72.73,51.13Z" transform="translate(-0.99 -1.01)"></path><path class="cls-9" d="M67.19,58.36v0Z" transform="translate(-0.99 -1.01)"></path><path class="cls-9" d="M72.5,45.57l-1.27-.72Z" transform="translate(-0.99 -1.01)"></path><path class="cls-9" d="M71.2,44.83l-.36-.2Z" transform="translate(-0.99 -1.01)"></path><path class="cls-9" d="M72.59,45.63h0l0,0Z" transform="translate(-0.99 -1.01)"></path><path class="cls-9" d="M97,59.73s0-.09,0-.14h0v0s0-.08,0-.13,0,.1,0,.15S97,59.68,97,59.73Z" transform="translate(-0.99 -1.01)"></path><path class="cls-9" d="M87.54,59.37l.17.19h0l-.18-.19Z" transform="translate(-0.99 -1.01)"></path><path class="cls-9" d="M79.6,51.14c.78.71,1.53,1.43,2.28,2.17C81.13,52.57,80.38,51.85,79.6,51.14Z" transform="translate(-0.99 -1.01)"></path><path class="cls-9" d="M94.72,55.57a1.15,1.15,0,0,1,.41.08A1.15,1.15,0,0,0,94.72,55.57Z" transform="translate(-0.99 -1.01)"></path><path class="cls-9" d="M92.49,58.46a1.42,1.42,0,0,0,0,.2A1.42,1.42,0,0,1,92.49,58.46Z" transform="translate(-0.99 -1.01)"></path><path class="cls-9" d="M95.26,55.69a1.91,1.91,0,0,1,.28.15Z" transform="translate(-0.99 -1.01)"></path><path class="cls-9" d="M96.15,56.43l.09.13Z" transform="translate(-0.99 -1.01)"></path><path class="cls-9" d="M97,58.74v0a.09.09,0,0,1,0,0s0,0,0,.08Z" transform="translate(-0.99 -1.01)"></path><path class="cls-9" d="M97,60.44v0h0s0,.06,0,.09A.09.09,0,0,1,97,60.44Z" transform="translate(-0.99 -1.01)"></path><path class="cls-9" d="M93.2,56.56l.09-.13Z" transform="translate(-0.99 -1.01)"></path><path class="cls-9" d="M94.3,55.65a1.2,1.2,0,0,1,.42-.08A1.2,1.2,0,0,0,94.3,55.65Z" transform="translate(-0.99 -1.01)"></path><path class="cls-9" d="M84,55.46l-1.08-1.11Z" transform="translate(-0.99 -1.01)"></path><path class="cls-9" d="M94.72,42.88h0v5.39l-2.07,9.47s0,.05,0,.07,0,0,0,0h0l2.07-9.47V42.89h0Z" transform="translate(-0.99 -1.01)"></path><path class="cls-9" d="M85.93,57.55l-.57-.62Z" transform="translate(-0.99 -1.01)"></path><path class="cls-9" d="M96.78,57.75a1.42,1.42,0,0,1,.07.22h0a1.42,1.42,0,0,0-.07-.22Z" transform="translate(-0.99 -1.01)"></path><path class="cls-9" d="M92.38,59.56h0s0-.08,0-.11S92.38,59.52,92.38,59.56Z" transform="translate(-0.99 -1.01)"></path><path class="cls-9" d="M93.9,55.84a1.51,1.51,0,0,1,.28-.15A1.51,1.51,0,0,0,93.9,55.84Z" transform="translate(-0.99 -1.01)"></path><path class="cls-9" d="M93.48,56.2a1.58,1.58,0,0,1,.3-.28A1.58,1.58,0,0,0,93.48,56.2Z" transform="translate(-0.99 -1.01)"></path><path class="cls-9" d="M96.86,61.18h0c-.06.2-.12.4-.19.58a4.54,4.54,0,0,0,.19-.59Z" transform="translate(-0.99 -1.01)"></path><path class="cls-9" d="M26.12,57.78l.26-.4Z" transform="translate(-0.99 -1.01)"></path><path class="cls-9" d="M95.66,55.92a2.56,2.56,0,0,1,.3.28A2.56,2.56,0,0,0,95.66,55.92Z" transform="translate(-0.99 -1.01)"></path><path class="cls-9" d="M27.76,55.36s.08-.11.13-.17A1.09,1.09,0,0,1,27.76,55.36Z" transform="translate(-0.99 -1.01)"></path><path class="cls-9" d="M67.33,59.53h0v0S67.33,59.51,67.33,59.53Z" transform="translate(-0.99 -1.01)"></path><path class="cls-9" d="M23.6,62.41l-.3.64Z" transform="translate(-0.99 -1.01)"></path><path class="cls-9" d="M22.33,65.37l0,.11Z" transform="translate(-0.99 -1.01)"></path><polygon class="cls-9" points="95.17 43.25 95.17 43.25 95.17 43.25 95.17 43.25"></polygon><path class="cls-9" d="M33.79,48.85h0Z" transform="translate(-0.99 -1.01)"></path><path class="cls-9" d="M31.52,51l.35-.34Z" transform="translate(-0.99 -1.01)"></path><path class="cls-9" d="M29.48,53.2c.11-.14.23-.27.35-.41C29.71,52.93,29.59,53.06,29.48,53.2Z" transform="translate(-0.99 -1.01)"></path><path class="cls-9" d="M96.79,57.75l-2.07-9.47Z" transform="translate(-0.99 -1.01)"></path><path class="cls-9" d="M60.74,64.92l-.12,0Z" transform="translate(-0.99 -1.01)"></path><path class="cls-9" d="M61.29,65l-.13,0Z" transform="translate(-0.99 -1.01)"></path><path class="cls-9" d="M24.87,59.9c-.13.24-.26.48-.38.72C24.61,60.38,24.74,60.14,24.87,59.9Z" transform="translate(-0.99 -1.01)"></path><path class="cls-9" d="M59.19,64.34h0Z" transform="translate(-0.99 -1.01)"></path><path class="cls-9" d="M60.2,64.78l-.07,0Z" transform="translate(-0.99 -1.01)"></path><path class="cls-9" d="M59.69,64.58h0Z" transform="translate(-0.99 -1.01)"></path><path class="cls-9" d="M56.8,61.63h0Z" transform="translate(-0.99 -1.01)"></path><path class="cls-9" d="M56.54,58.32l0,.12Z" transform="translate(-0.99 -1.01)"></path><path class="cls-9" d="M57.1,56.87v0Z" transform="translate(-0.99 -1.01)"></path><path class="cls-9" d="M58.92,55Z" transform="translate(-0.99 -1.01)"></path><path class="cls-9" d="M56.68,57.82l0,.08Z" transform="translate(-0.99 -1.01)"></path><path class="cls-9" d="M56.87,57.33a.08.08,0,0,1,0,.05A.08.08,0,0,0,56.87,57.33Z" transform="translate(-0.99 -1.01)"></path><path class="cls-9" d="M62.94,54.21h0Z" transform="translate(-0.99 -1.01)"></path><path class="cls-9" d="M63.93,54.51h0Z" transform="translate(-0.99 -1.01)"></path><path class="cls-9" d="M59.83,54.49h0Z" transform="translate(-0.99 -1.01)"></path><path class="cls-9" d="M60.83,54.2h0Z" transform="translate(-0.99 -1.01)"></path><path class="cls-9" d="M67.29,58.92Z" transform="translate(-0.99 -1.01)"></path><path class="cls-9" d="M61.89,42v0Z" transform="translate(-0.99 -1.01)"></path><path class="cls-9" d="M61.89,41.59v0Z" transform="translate(-0.99 -1.01)"></path><path class="cls-9" d="M61.89,41.37v0Z" transform="translate(-0.99 -1.01)"></path><path class="cls-9" d="M61.89,42.7v0Z" transform="translate(-0.99 -1.01)"></path><path class="cls-9" d="M96.32,62.48a2.48,2.48,0,0,1-.19.26A2.48,2.48,0,0,0,96.32,62.48Z" transform="translate(-0.99 -1.01)"></path><path class="cls-9" d="M56.44,58.87a.69.69,0,0,1,0,.13A.69.69,0,0,0,56.44,58.87Z" transform="translate(-0.99 -1.01)"></path><path class="cls-9" d="M56.5,60.62v0Z" transform="translate(-0.99 -1.01)"></path><path class="cls-9" d="M96.61,61.91l-.18.38Z" transform="translate(-0.99 -1.01)"></path><path class="cls-4" d="M75.65,94.07c-.18-.2-.36-.42-.55-.66.19.25.37.46.55.66Z" transform="translate(-0.99 -1.01)"></path><path class="cls-5" d="M77,95.4v0a11.09,11.09,0,0,1-1.33-1.33h0A11.09,11.09,0,0,0,77,95.4Z" transform="translate(-0.99 -1.01)"></path><circle class="cls-1" cx="93.72" cy="41.88"></circle><path class="cls-1" d="M97.05,59.59h0Z" transform="translate(-0.99 -1.01)"></path><path class="cls-10" d="M97.67,46.13h0l0,0h0a18.75,18.75,0,0,0-1.49-1.83h0v0h0c-.23-.25-.46-.49-.7-.72l-.27-.24-.45-.4h0v5.4l2.06,9.47h0a1.42,1.42,0,0,1,.07.22l1.44,1.6H99.8c0-.14,0-.28,0-.42h0a40.88,40.88,0,0,0-2.06-12.78h0C97.72,46.29,97.7,46.21,97.67,46.13Z" transform="translate(-0.99 -1.01)"></path><path class="cls-10" d="M97.05,59.58v0Z" transform="translate(-0.99 -1.01)"></path><path class="cls-11" d="M97,58.67a.09.09,0,0,0,0,0v0h0a5.12,5.12,0,0,1,0,.69s0,.08,0,.12v0h0s0,.09,0,.14a4.92,4.92,0,0,1,0,.67h0v0a.09.09,0,0,0,0,.05c0,.24-.08.47-.13.69h0l1.42-1.59L96.85,58h0C96.91,58.19,97,58.43,97,58.67Z" transform="translate(-0.99 -1.01)"></path><path d="M97,60.49s0-.06,0-.09a4.83,4.83,0,0,0,0-.67s0-.1,0-.15a.61.61,0,0,0,0-.14,5.12,5.12,0,0,0,0-.69s0,0,0-.08a5.1,5.1,0,0,0-.14-.7,1.42,1.42,0,0,0-.07-.22,4.21,4.21,0,0,0-.54-1.19l-.09-.13L96,56.2a2.56,2.56,0,0,0-.3-.28l-.12-.08a1.91,1.91,0,0,0-.28-.15l-.13,0a1.15,1.15,0,0,0-.41-.08,1.2,1.2,0,0,0-.42.08l-.12,0a1.51,1.51,0,0,0-.28.15,1.25,1.25,0,0,0-.12.08,1.58,1.58,0,0,0-.3.28,2.11,2.11,0,0,0-.19.23l-.09.13a4.36,4.36,0,0,0-.55,1.19l0,0a6.38,6.38,0,0,0-.15.66l0,.2a5.16,5.16,0,0,0-.06.79s0,.07,0,.11h0c0,2.21,1,4,2.34,4a1.48,1.48,0,0,0,.64-.16l.09,0,.25-.16.13-.12a3.11,3.11,0,0,0,.29-.33,2.48,2.48,0,0,0,.19-.26l.11-.19.18-.38.06-.15c.07-.18.13-.38.19-.58S97,60.73,97,60.49ZM94.8,59c-.48,0-.87-.67-.87-1.5s.39-1.5.87-1.5.88.67.88,1.5S95.29,59,94.8,59Z" transform="translate(-0.99 -1.01)"></path><ellipse class="cls-1" cx="93.82" cy="56.54" rx="0.88" ry="1.5"></ellipse><path class="cls-12" d="M92.65,57.75h0a4.22,4.22,0,0,1,.55-1.19l.09-.13a2.11,2.11,0,0,1,.19-.23,1.58,1.58,0,0,1,.3-.28l.12-.08a1.51,1.51,0,0,1,.28-.15l.12,0a1.2,1.2,0,0,1,.42-.08,1.15,1.15,0,0,1,.41.08l.13,0a1.91,1.91,0,0,1,.28.15l.12.08a2.56,2.56,0,0,1,.3.28l.19.23.09.13a4.21,4.21,0,0,1,.54,1.19h0l-2.06-9.47-2.07,9.47Z" transform="translate(-0.99 -1.01)"></path><path d="M67.32,59.49a5.44,5.44,0,0,0,0-.57h0q0-.29-.09-.54v0a4.84,4.84,0,0,0-.14-.51h0c-.06-.17-.12-.34-.19-.5h0a4.16,4.16,0,0,0-.24-.47h0a5.42,5.42,0,0,0-1-1.25,5.49,5.49,0,0,0-1.7-1.11h0a5.3,5.3,0,0,0-1-.3h0a5.19,5.19,0,0,0-1-.1,5,5,0,0,0-1,.1h0a5.31,5.31,0,0,0-1,.29h0a5,5,0,0,0-.89.46h0a5.35,5.35,0,0,0-.8.62v0h0a5.61,5.61,0,0,0-1,1.27h0a4.78,4.78,0,0,0-.23.45l0,.05c-.06.14-.12.29-.17.43l0,.09c0,.13-.08.28-.11.42l0,.12c0,.14,0,.28-.07.42a.51.51,0,0,1,0,.13,5.44,5.44,0,0,0,0,.57,5.22,5.22,0,0,0,.11,1.06v0a5.65,5.65,0,0,0,.3,1h0a5.63,5.63,0,0,0,1.12,1.71,5.52,5.52,0,0,0,1.27,1h0l.46.22,0,0,.45.17.07,0,.42.11.12,0c.14,0,.28,0,.42.06l.13,0a5.48,5.48,0,0,0,2.7-.4,4.63,4.63,0,0,0,.93-.5,5.45,5.45,0,0,0,1.47-1.48,5.23,5.23,0,0,0,.51-.93,5.37,5.37,0,0,0,.43-2.13v0h0s0,0,0,0Zm-5.46-.64a2.06,2.06,0,1,1,2-2.06A2.05,2.05,0,0,1,61.86,58.85Z" transform="translate(-0.99 -1.01)"></path><circle class="cls-1" cx="60.88" cy="55.79" r="2.05"></circle><path class="cls-10" d="M58.1,55.6h0v0h0l3.77-11.52V41.34a32.1,32.1,0,0,0-6.46-.67c-.74,0-1.47,0-2.2.08l-.31,0a32.47,32.47,0,0,0-11,2.85,35,35,0,0,0-8.18,5.24h0c-.66.56-1.3,1.16-1.92,1.77l-.35.34c-.58.59-1.15,1.19-1.69,1.82l-.35.41c-.55.65-1.09,1.31-1.59,2l-.13.18c-.48.65-.94,1.33-1.38,2l-.26.4c-.36.57-.69,1.16-1,1.74H42.25Z" transform="translate(-0.99 -1.01)"></path><path class="cls-13" d="M72.58,54.31q.06-.68.09-1.35,0-.91.06-1.83c0-.47,0-.94,0-1.42V49.3c0-1.22-.06-2.44-.13-3.66h0l0,0,0,0c-.23-.12-.78-.44-1.27-.72l0,0-.36-.2h0l-.25-.14,0,0-.18-.1c-.79-.4-1.59-.78-2.41-1.13a42.05,42.05,0,0,0-6.06-1.89v2.72L65.62,55.6h0a5.42,5.42,0,0,1,1,1.25h0a5.21,5.21,0,0,1,.24.47h0c.07.16.13.33.19.5h0a4.84,4.84,0,0,1,.14.51v0c0,.17.07.35.09.54h0a5.44,5.44,0,0,1,0,.57h0l0,0h4.57a50.56,50.56,0,0,0,.66-5.07C72.57,54.4,72.58,54.35,72.58,54.31Z" transform="translate(-0.99 -1.01)"></path><path class="cls-14" d="M78.56,50.23h0Z" transform="translate(-0.99 -1.01)"></path><path class="cls-14" d="M67.36,76c1-1,2-2,3-3q.84-.85,1.62-1.71c3.82-4.14,6.62-8,8.31-13a4.64,4.64,0,0,0,.12-.45l0-.08c0-.18.07-.39.11-.63s0-.31.05-.46a47.55,47.55,0,0,0-2-6.38v0l0,0-.42-.38c-.43-.4-.87-.78-1.32-1.16a35,35,0,0,0-4.21-3.06h0c.08,1.22.13,2.44.14,3.66v.41c0,.48,0,.95,0,1.42s0,1.22-.06,1.83q0,.67-.09,1.35s0,.09,0,.14a50.94,50.94,0,0,1-.66,5.07l-.54,2.54C70.25,66.6,68,70.73,66.1,75c-.5,1.13-1,2.28-1.38,3.44l-.12.33c.59-.62,1.1-1.15,1.5-1.54Z" transform="translate(-0.99 -1.01)"></path><path class="cls-12" d="M58.12,55.58h0a6.09,6.09,0,0,1,.8-.62h0a5.76,5.76,0,0,1,.89-.46h0a6.26,6.26,0,0,1,1-.29h0a5.8,5.8,0,0,1,1-.1,6,6,0,0,1,1,.1h0a4.62,4.62,0,0,1,1,.29h0a5.65,5.65,0,0,1,1.7,1.1h0L61.89,44.06Z" transform="translate(-0.99 -1.01)"></path><path class="cls-11" d="M56.8,61.63a5.3,5.3,0,0,1-.3-1v0A5.19,5.19,0,0,1,56.42,59a.69.69,0,0,0,0-.13c0-.15,0-.29.07-.43l0-.12c0-.14.07-.28.11-.42l0-.08c0-.15.11-.3.17-.44s0,0,0-.05a3.68,3.68,0,0,1,.23-.44v0a5.3,5.3,0,0,1,1-1.27h0L42.25,59.52h0l15.7,3.83a5.63,5.63,0,0,1-1.12-1.71Z" transform="translate(-0.99 -1.01)"></path><path class="cls-13" d="M92.45,58.66a1.18,1.18,0,0,1,0-.2,6.4,6.4,0,0,1,.14-.66s0,0,0-.07l2.07-9.47v-5.4a8.46,8.46,0,0,0-5.39-2.15,9.31,9.31,0,0,0-6.25,2.93,23.51,23.51,0,0,0-4.36,6.27l-.15.31c.35.3.69.61,1,.92.78.71,1.53,1.43,2.28,2.17.35.34.69.69,1,1L84,55.46c.46.48.92,1,1.37,1.46l.56.63c.55.6,1.09,1.2,1.62,1.82h0c.09.09.15.16.18.18h4.66s0-.07,0-.11A5,5,0,0,1,92.45,58.66Z" transform="translate(-0.99 -1.01)"></path><path class="cls-13" d="M78.57,50.24h0l0,0Z" transform="translate(-0.99 -1.01)"></path><path class="cls-4" d="M22.28,65.48l0-.11c.3-.78.62-1.56,1-2.32l.3-.64c.28-.6.58-1.2.89-1.79.12-.24.25-.48.38-.71s.15-.26.22-.39c.34-.59.67-1.17,1-1.74l.26-.4c.44-.69.9-1.36,1.38-2l.13-.17c.5-.68,1-1.34,1.58-2l.36-.41c.54-.63,1.11-1.24,1.69-1.82l.35-.35c.62-.6,1.25-1.2,1.92-1.76h0a20.77,20.77,0,0,1,30.85-12,21.28,21.28,0,0,1,7.79,8.48.14.14,0,0,0,0,.06,2.15,2.15,0,0,1,.14.26h0a35,35,0,0,1,4.21,3.06c.45.38.89.76,1.32,1.16l.42.38h0l.15-.3c1.33-8.39,5-14.44,9.4-14.44,3.29,0,6.21,3.43,8,8.72l0,0h0a18.91,18.91,0,0,1,1.49,1.84h0l0,0h0a2.17,2.17,0,0,1,.07.24h0l-.07-.28a40.71,40.71,0,0,0-77.26,25.7v0q.39-1.8.93-3.57C21.63,67.29,21.94,66.38,22.28,65.48Z" transform="translate(-0.99 -1.01)"></path><path class="cls-1" d="M98.29,59.57l-1.42,1.59h0a4.54,4.54,0,0,1-.19.59l-.06.15-.18.38-.11.19a2.48,2.48,0,0,1-.19.26,3.11,3.11,0,0,1-.29.33l-.13.12-.25.16-.09,0a1.48,1.48,0,0,1-.64.16c-1.29,0-2.34-1.79-2.34-4H87.71c.87,1,1.72,2,2.57,3l0,0q1.23,1.5,2.43,3l.11.15c.76,1,1.51,1.94,2.26,2.91l.21.29c.79,1,1.57,2.07,2.34,3.1l0,0a41.05,41.05,0,0,0,2.13-12.6H98.29Z" transform="translate(-0.99 -1.01)"></path><path d="M52.92,40.77l.31,0c.73,0,1.46-.08,2.2-.08a32.84,32.84,0,0,1,6.46.66v0A42.05,42.05,0,0,1,68,43.23c.82.35,1.62.72,2.41,1.13l.18.1,0,0,.24.14h0l.36.2,0,0,1.27.72,0,0,0,0h0l-.14-.26,0-.06a21.1,21.1,0,0,0-7.78-8.47,20.76,20.76,0,0,0-30.85,12A35.39,35.39,0,0,1,42,43.62,32.35,32.35,0,0,1,52.92,40.77Z" transform="translate(-0.99 -1.01)"></path><line class="cls-9" x1="60.91" y1="41.37" x2="60.91" y2="41.61"></line><path d="M83.08,43.65a9.28,9.28,0,0,1,6.25-2.94,8.42,8.42,0,0,1,5.39,2.16h0l.45.4.27.25c.23.22.47.46.7.71h0v0h0l0-.06c-1.81-5.29-4.73-8.72-8-8.72-4.37,0-8.07,6.05-9.4,14.45v0A23.46,23.46,0,0,1,83.08,43.65Z" transform="translate(-0.99 -1.01)"></path><path class="cls-1" d="M44.53,97.1l1.12.4a40.67,40.67,0,0,0,28.66-.66l.73-.31L76.23,96c.35-.16.7-.32,1-.5l-.25,0h0a17.41,17.41,0,0,1-4.33,0c-8.38-1.2-10.23-5.24-10-9.45-.6-.35-1.21-.74-1.84-1.19a54.17,54.17,0,0,1-10.26-9.65A54.46,54.46,0,0,0,63,81.92l.46.18c.35-1.2.76-2.34,1.12-3.35h0l.12-.33c.41-1.16.88-2.3,1.38-3.43,1.87-4.26,4.15-8.39,5.27-12.93l.54-2.54H67.33v0a5.44,5.44,0,0,1-.43,2.13,6,6,0,0,1-.51.93,5.41,5.41,0,0,1-1.47,1.47,5.23,5.23,0,0,1-.93.51,5.62,5.62,0,0,1-2.13.43,5.44,5.44,0,0,1-.57,0l-.13,0-.42-.07-.12,0-.42-.11-.07,0a4.13,4.13,0,0,1-.45-.17h0c-.16-.07-.31-.15-.46-.23h0a5.57,5.57,0,0,1-1.27-1l-15.7-3.83H25.1c-.08.13-.16.26-.23.39s-.25.47-.38.71c-.31.59-.61,1.19-.89,1.79l-.3.64c-.34.76-.67,1.54-1,2.32a.49.49,0,0,0,0,.11c-.34.9-.66,1.81-.94,2.73-.36,1.17-.67,2.36-.93,3.56A40.78,40.78,0,0,0,35.22,92c.2.15.41.28.61.42a40.52,40.52,0,0,0,8.7,4.64Z" transform="translate(-0.99 -1.01)"></path><path class="cls-15" d="M72.63,84.45c-.06.44-.1.87-.12,1.28a11.54,11.54,0,0,0,.14,2.15,10.13,10.13,0,0,0,.29,1.29,11.86,11.86,0,0,0,.65,1.74,13.64,13.64,0,0,0,.8,1.48l.29.43a6.9,6.9,0,0,0,.43.59,7.65,7.65,0,0,0,.54.66A12.06,12.06,0,0,0,77,95.4l0,0,0,.1h0l.25,0a25.88,25.88,0,0,0,5.45-1.36c.92-.34,1.83-.69,2.73-1.11.28-.12.55-.26.82-.39,9.33-4.51,17.13-12.49,17.13-12.49A51.13,51.13,0,0,1,72.63,84.45Z" transform="translate(-0.99 -1.01)"></path><path class="cls-2" d="M95.1,68.74c-.74-1-1.49-1.95-2.25-2.91l-.11-.15q-1.2-1.53-2.43-3l0,0c-.85-1-1.7-2-2.57-3l-.17-.19c-.53-.61-1.07-1.22-1.61-1.82l-.57-.62c-.45-.49-.91-1-1.37-1.46l-1.08-1.12c-.34-.35-.68-.7-1-1-.75-.73-1.5-1.46-2.27-2.17l-1-.92h0a45.53,45.53,0,0,1,2,6.46q.16.86.27,1.68c1,7.63-1.42,12.61-5.3,19.16L74.67,79a15.39,15.39,0,0,0-1.79,4.2,12.54,12.54,0,0,0-.25,1.28,51.13,51.13,0,0,0,30.78-4.3s-2.29-3.37-5.75-8c-.77-1-1.55-2.08-2.34-3.11Z" transform="translate(-0.99 -1.01)"></path><path d="M77,95.4a11.09,11.09,0,0,1-1.33-1.33c-.18-.2-.36-.41-.55-.66s-.28-.38-.42-.59l-.29-.43a13.64,13.64,0,0,1-.8-1.48,11.86,11.86,0,0,1-.65-1.74,10.29,10.29,0,0,1-.29-1.3,11.38,11.38,0,0,1-.14-2.14c0-.41.06-.84.12-1.28a12.72,12.72,0,0,1,.25-1.29A15.47,15.47,0,0,1,74.67,79v0c.29-.48.57-1,.84-1.42C79.41,71,81.85,66,80.83,58.36c-.07-.54-.17-1.1-.27-1.67q-.09.59-.18,1l0,.08a4.64,4.64,0,0,1-.12.45c-1.69,5-4.49,8.88-8.31,13q-.78.84-1.62,1.71c-.93,1-1.91,2-3,3L66.1,77.21c-.39.39-.91.92-1.5,1.54h0c-.36,1-.77,2.15-1.12,3.35L63,81.92a54.46,54.46,0,0,1-12.39-6.7,54.17,54.17,0,0,0,10.26,9.65c.63.45,1.24.84,1.84,1.19-.26,4.21,1.59,8.25,10,9.45a17.41,17.41,0,0,0,4.33,0l0-.1Z" transform="translate(-0.99 -1.01)"></path></g></svg>