<?xml version="1.0" encoding="UTF-8"?> <svg xmlns="http://www.w3.org/2000/svg" xmlns:xlink="http://www.w3.org/1999/xlink" version="1.1" id="Layer_2_00000124853346569531908400000006501287645375102877_" x="0px" y="0px" viewBox="0 0 528.1 87.9" style="enable-background:new 0 0 528.1 87.9;" xml:space="preserve"> <style type="text/css"> .st0{fill:#95BF47;} .st1{fill:#FFFFFF;} .st2{fill:#5E8E3E;} </style> <g id="shopify-p"> <g> <path class="st0" d="M66.3,16.5L66.3,16.5c0-0.2-0.1-0.3-0.3-0.5c-0.1-0.1-0.3-0.2-0.5-0.2c-0.3,0-6.4-0.1-6.4-0.1s-5.1-5-5.6-5.5 S52,9.9,51.7,10l-2.6,0.8c-0.3-1-0.7-2-1.2-3c-1.8-3.5-4.5-5.3-7.7-5.3h0c-0.2,0-0.5,0-0.7,0c-0.1-0.1-0.2-0.2-0.3-0.3 C37.8,0.7,36-0.1,33.8,0c-4.2,0.1-8.3,3.1-11.7,8.5c-2.4,3.7-4.2,8.5-4.7,12.1l-8.2,2.5c-2.4,0.8-2.5,0.8-2.8,3.1 C6.3,27.9,0,76.7,0,76.7l52.8,9.1l22.9-5.7C75.7,80.1,66.4,16.9,66.3,16.5z M39.6,13.7L39.6,13.7l-8.8,2.7 c0.8-3.3,2.5-6.5,4.5-8.6c0.8-0.9,1.9-1.7,3-2.2C39.4,8,39.6,11.4,39.6,13.7z M33.9,2.8c0.9,0,1.8,0.2,2.5,0.6 c-1.2,0.7-2.3,1.5-3.2,2.5c-2.6,2.8-4.7,7.2-5.5,11.5l-7.2,2.2C21.9,13,27.5,2.9,33.9,2.8z M25.8,40.8c0.3,4.5,12,5.4,12.6,15.8 c0.5,8.2-4.3,13.8-11.4,14.3c-8.4,0.5-13-4.4-13-4.4l1.8-7.6c0,0,4.7,3.5,8.4,3.3c2.4-0.2,3.3-2.1,3.2-3.5 c-0.4-5.8-9.9-5.5-10.5-15c-0.5-8,4.8-16.2,16.4-16.9c4.5-0.3,6.8,0.9,6.8,0.9l0,0l-2.7,9.9c-2-0.8-4.3-1.2-6.5-1.1 C25.8,36.7,25.8,40,25.8,40.8z M42.3,12.9c0-2.1-0.3-5-1.3-7.6c3.1,0.6,4.7,4.2,5.4,6.3L42.3,12.9z"></path> <g> <path class="st1" d="M313.2,86.1l7.3-39.1c0.9-4.9,1.6-9.2,2.1-12.6h3.1l-1.1,7.4h0.1c3.3-5,7.9-8.2,12.8-8.2c7,0,9.5,6,9.5,11.9 c0,12.4-8.5,26.3-20.2,26.3c-3.6,0-6-0.8-7.3-1.6h-0.1l-2.9,15.8H313.2L313.2,86.1z M320.1,66.9c1.7,1.3,4.1,2.1,7.1,2.1 c9.7,0,16.4-13.8,16.4-23.2c0-4.4-1.7-9.2-7.1-9.2s-12,6.6-14.1,17.7L320.1,66.9z"></path> <path class="st1" d="M372.4,71.1c-0.1-2.2,0.4-5.7,0.9-9.9h-0.1c-4.2,8.1-8.9,10.6-13.7,10.6c-5.6,0-8.9-4.6-8.9-11.2 c0-12.5,8.9-27.1,23.2-27.1c2.6,0,5.5,0.5,7.4,1.1l-3.9,19.8c-1.3,6.8-1.8,12.7-1.6,16.6H372.4L372.4,71.1z M377.3,37.1 c-0.8-0.3-2.1-0.5-4.4-0.5c-10.5,0-18.8,11.8-18.9,23.3c-0.1,4.7,1.3,9,6.3,9c6,0,12.7-8.9,14.5-18.4L377.3,37.1L377.3,37.1z"></path> <path class="st1" d="M384.2,71.1l4.7-24.7c0.9-4.7,1.5-8.8,1.8-12h3.1c-0.3,2.4-0.6,4.8-1.1,8h0.1c2.3-4.9,5.9-8.7,10.5-8.7 c0.5,0,0.9,0.1,1.4,0.2l-0.6,3.4c-0.4-0.1-0.9-0.2-1.3-0.2c-4.8,0-10.2,7.3-11.7,15.4l-3.4,18.6L384.2,71.1L384.2,71.1z"></path> <path class="st1" d="M418.6,26.3l-1.6,8.1h8.6l-0.6,2.8h-8.6l-4,21.9c-0.5,2.5-0.8,4.4-0.8,6.3c0,2.1,1,3.4,3.3,3.4 c1.2,0,2-0.1,2.7-0.3l0.2,2.7c-1.2,0.3-2.4,0.5-3.6,0.5c-4.4,0-6-2.9-6-6c0-2,0.2-3.9,0.8-6.7l4.1-21.9h-5.3l0.5-2.8h5.4l1.2-6.6 L418.6,26.3L418.6,26.3z"></path> <path class="st1" d="M424.8,71.1l4.9-25.9c0.7-3.6,1.3-7.2,1.7-10.8h3.1l-1,7.5h0.1c3.2-5.3,7.8-8.3,12.8-8.3 c3.6,0,8.2,2.3,8.2,9.2c0,1.8-0.3,3.7-0.7,5.7l-4.2,22.5h-3.3l4.3-22.5c0.3-1.8,0.5-3.5,0.5-5.3c0-3.8-1.5-6.6-6-6.6 c-4.9,0-11.8,6.1-13.4,15l-3.6,19.5L424.8,71.1L424.8,71.1z"></path> <path class="st1" d="M481.4,69c-1.9,1.2-5.4,2.8-10,2.8c-8.6,0-11.5-6.7-11.5-13.8c0-10.5,7.3-24.4,17.9-24.4c6,0,8.6,4,8.6,8 c0,9.3-10.7,11.9-22.7,11.9c-0.4,1.7-0.5,6.5,0.3,9.1c1.3,4.2,4.1,6.2,8,6.2s6.8-1.4,8.5-2.4L481.4,69L481.4,69z M477.1,36.6 c-5.7,0-10.8,6.1-13,14c9.5,0.1,18.7-1.5,18.7-8.8C482.9,38.4,480.6,36.6,477.1,36.6L477.1,36.6z"></path> <path class="st1" d="M488.1,71.1l4.7-24.7c0.9-4.7,1.5-8.8,1.8-12h3.1c-0.3,2.4-0.6,4.8-1.1,8h0.1c2.3-4.9,5.9-8.7,10.5-8.7 c0.5,0,0.9,0.1,1.4,0.2l-0.6,3.4c-0.4-0.1-0.9-0.2-1.3-0.2c-4.8,0-10.2,7.3-11.7,15.4l-3.4,18.6L488.1,71.1L488.1,71.1z"></path> <path class="st1" d="M507,66.8c1.9,1.3,4.2,2,6.5,2c4.8,0,8-3.4,8-7.6c0-3.7-1.5-5.9-5-8.1c-3.6-2.4-5.6-5.7-5.6-9 c0-5.7,4.6-10.5,11-10.5c2.5,0,5,0.8,6.1,1.7l-1.2,2.8c-1.2-0.7-3.1-1.5-5.3-1.5c-4.4,0-7.3,3.1-7.3,6.9c0,3.4,1.9,5.3,5,7.3 c3.5,2.4,5.7,5.7,5.7,9.4c0,7.4-5.4,11.5-11.7,11.5c-3.3,0-6.2-1.2-7.4-2.2L507,66.8L507,66.8z"></path> </g> <path class="st2" d="M65.6,15.8c-0.3,0-6.4-0.1-6.4-0.1s-5.1-5-5.6-5.4c-0.2-0.2-0.4-0.3-0.7-0.3v75.9l22.9-5.7 c0,0-9.3-63.2-9.4-63.6c0-0.2-0.1-0.4-0.3-0.5C65.9,15.9,65.8,15.8,65.6,15.8L65.6,15.8z"></path> <path class="st1" d="M106.7,48.8c-2.7-1.4-4-2.7-4-4.3c0-2.1,1.9-3.5,4.9-3.5c3.4,0,6.5,1.4,6.5,1.4l2.4-7.4c0,0-2.2-1.7-8.8-1.7 c-9.1,0-15.5,5.2-15.5,12.6c0,4.2,3,7.3,6.9,9.6c3.2,1.8,4.3,3.1,4.3,5s-1.6,3.6-4.6,3.6c-4.4,0-8.6-2.3-8.6-2.3l-2.6,7.4 c0,0,3.8,2.6,10.3,2.6c9.4,0,16.2-4.6,16.2-13C114.2,54.4,110.8,51.2,106.7,48.8L106.7,48.8z"></path> <path class="st1" d="M144.2,33.2c-4.6,0-8.3,2.2-11.1,5.5l-0.1-0.1l4-21h-10.4l-10.2,53.5h10.5l3.5-18.3 c1.4-6.9,4.9-11.1,8.3-11.1c2.4,0,3.3,1.6,3.3,3.9c0,1.5-0.1,3.1-0.5,4.6l-3.9,20.9h10.5l4.1-21.6c0.4-2.2,0.7-4.5,0.8-6.8 C152.8,36.8,149.7,33.2,144.2,33.2L144.2,33.2z"></path> <path class="st1" d="M176.4,33.2c-12.6,0-20.9,11.4-20.9,24c0,8.1,5,14.6,14.4,14.6c12.4,0,20.7-11.1,20.7-24 C190.6,40.3,186.2,33.2,176.4,33.2L176.4,33.2L176.4,33.2z M171.3,63.8c-3.6,0-5.1-3-5.1-6.8c0-6,3.1-15.8,8.8-15.8 c3.7,0,4.9,3.2,4.9,6.3C179.9,54,176.8,63.8,171.3,63.8L171.3,63.8L171.3,63.8z"></path> <path class="st1" d="M217.4,33.2c-7.1,0-11.1,6.2-11.1,6.2h-0.1l0.6-5.6h-9.2c-0.4,3.8-1.3,9.6-2.1,13.9L188.1,86h10.5l2.9-15.5 h0.2c0,0,2.1,1.4,6.1,1.4c12.3,0,20.3-12.6,20.3-25.3C228.1,39.5,225,33.2,217.4,33.2L217.4,33.2z M207.4,64 c-1.6,0-3.1-0.5-4.3-1.5l1.7-9.8c1.2-6.5,4.6-10.8,8.3-10.8c3.2,0,4.2,3,4.2,5.8C217.2,54.4,213.2,64,207.4,64L207.4,64z"></path> <path class="st1" d="M243.1,18.2c-0.8,0-1.6,0.1-2.3,0.5s-1.4,0.8-2,1.3c-0.6,0.6-1,1.2-1.3,2c-0.3,0.7-0.4,1.5-0.4,2.3 c0,3.1,2,5.2,4.9,5.2h0.1c3.3,0,6.1-2.2,6.1-6.1C248.3,20.4,246.3,18.2,243.1,18.2z"></path> <path class="st1" d="M228.4,71.1h10.5L246,34h-10.5L228.4,71.1L228.4,71.1z"></path> <path class="st1" d="M272.6,34h-7.3l0.4-1.7c0.6-3.6,2.7-6.8,6.2-6.8c1.1,0,2.3,0.2,3.3,0.5l2-8.2c0,0-1.8-0.9-5.7-0.9 s-7.4,1.1-10.2,3.5c-3.6,3-5.2,7.4-6.1,11.8l-0.3,1.7h-4.9l-1.5,7.9h4.9L248,71.1h10.5l5.5-29.3h7.2L272.6,34L272.6,34z"></path> <path class="st1" d="M297.8,34c0,0-6.5,16.5-9.5,25.5h-0.1c-0.2-2.9-2.6-25.5-2.6-25.5h-11l6.3,34.1c0.1,0.8,0.1,1.2-0.2,1.7 c-1.2,2.3-3.3,4.6-5.7,6.3c-2,1.4-4.2,2.3-5.9,3l2.9,8.9c2.1-0.4,6.5-2.2,10.2-5.7c4.8-4.5,9.2-11.4,13.7-20.8L308.8,34L297.8,34 L297.8,34z"></path> </g> </g> </svg> 